{
    "patcher": {
        "fileversion": 1,
        "appversion": {
            "major": 9,
            "minor": 1,
            "revision": 2,
            "architecture": "x64",
            "modernui": 1
        },
        "classnamespace": "box",
        "rect": [ 34.0, 95.0, 721.0, 767.0 ],
        "boxes": [
            {
                "box": {
                    "id": "obj-44",
                    "maxclass": "newobj",
                    "numinlets": 0,
                    "numoutlets": 0,
                    "patcher": {
                        "fileversion": 1,
                        "appversion": {
                            "major": 9,
                            "minor": 1,
                            "revision": 2,
                            "architecture": "x64",
                            "modernui": 1
                        },
                        "classnamespace": "box",
                        "rect": [ 824.0, 95.0, 612.0, 766.0 ],
                        "visible": 1,
                        "boxes": [
                            {
                                "box": {
                                    "id": "obj-2",
                                    "maxclass": "newobj",
                                    "numinlets": 1,
                                    "numoutlets": 1,
                                    "outlettype": [ "" ],
                                    "patching_rect": [ 313.39285415410995, 417.8571388721466, 19.0, 22.0 ],
                                    "saved_object_attributes": {
                                        "attr_comment": "",
                                        "c": ""
                                    },
                                    "text": "in"
                                }
                            },
                            {
                                "box": {
                                    "id": "obj-18",
                                    "maxclass": "comment",
                                    "numinlets": 1,
                                    "numoutlets": 0,
                                    "patching_rect": [ 561.0, 495.50551867485046, 150.0, 20.0 ],
                                    "text": "TOE, range 0 - 0.5"
                                }
                            },
                            {
                                "box": {
                                    "id": "obj-42",
                                    "maxclass": "message",
                                    "numinlets": 2,
                                    "numoutlets": 1,
                                    "outlettype": [ "" ],
                                    "patching_rect": [ 717.5824526548386, 494.50551867485046, 32.0, 22.0 ],
                                    "text": "0.22"
                                }
                            },
                            {
                                "box": {
                                    "id": "obj-31",
                                    "maxclass": "message",
                                    "numinlets": 2,
                                    "numoutlets": 1,
                                    "outlettype": [ "" ],
                                    "patching_rect": [ 475.8241990804672, 494.50551867485046, 29.5, 22.0 ],
                                    "text": "0.1"
                                }
                            },
                            {
                                "box": {
                                    "id": "obj-22",
                                    "maxclass": "newobj",
                                    "numinlets": 1,
                                    "numoutlets": 1,
                                    "outlettype": [ "bang" ],
                                    "patching_rect": [ 717.5824526548386, 456.0439783334732, 58.0, 22.0 ],
                                    "text": "loadbang"
                                }
                            },
                            {
                                "box": {
                                    "id": "obj-20",
                                    "maxclass": "newobj",
                                    "numinlets": 1,
                                    "numoutlets": 1,
                                    "outlettype": [ "bang" ],
                                    "patching_rect": [ 474.72529792785645, 456.0439783334732, 58.0, 22.0 ],
                                    "text": "loadbang"
                                }
                            },
                            {
                                "box": {
                                    "id": "obj-78",
                                    "maxclass": "message",
                                    "numinlets": 2,
                                    "numoutlets": 1,
                                    "outlettype": [ "" ],
                                    "patching_rect": [ 287.91210198402405, 808.7912483215332, 29.5, 22.0 ],
                                    "text": "1"
                                }
                            },
                            {
                                "box": {
                                    "id": "obj-36",
                                    "maxclass": "multislider",
                                    "numinlets": 1,
                                    "numoutlets": 2,
                                    "outlettype": [ "", "" ],
                                    "parameter_enable": 0,
                                    "patching_rect": [ 504.3956290483475, 691.2088249921799, 246.0, 107.0 ],
                                    "presentation": 1,
                                    "presentation_rect": [ 346.66665530204773, 461.4814663529396, 246.0, 107.0 ],
                                    "setminmax": [ 0.0, 0.5 ],
                                    "setstyle": 5
                                }
                            },
                            {
                                "box": {
                                    "id": "obj-35",
                                    "maxclass": "newobj",
                                    "numinlets": 1,
                                    "numoutlets": 1,
                                    "outlettype": [ "signal" ],
                                    "patching_rect": [ 438.46155989170074, 614.2857443094254, 31.0, 22.0 ],
                                    "text": "sig~"
                                }
                            },
                            {
                                "box": {
                                    "id": "obj-34",
                                    "maxclass": "newobj",
                                    "numinlets": 1,
                                    "numoutlets": 1,
                                    "outlettype": [ "signal" ],
                                    "patching_rect": [ 438.46155989170074, 573.6264016628265, 31.0, 22.0 ],
                                    "text": "sig~"
                                }
                            },
                            {
                                "box": {
                                    "id": "obj-33",
                                    "maxclass": "newobj",
                                    "numinlets": 1,
                                    "numoutlets": 1,
                                    "outlettype": [ "signal" ],
                                    "patching_rect": [ 246.15385818481445, 576.9231051206589, 31.0, 22.0 ],
                                    "text": "sig~"
                                }
                            },
                            {
                                "box": {
                                    "id": "obj-32",
                                    "maxclass": "newobj",
                                    "numinlets": 2,
                                    "numoutlets": 2,
                                    "outlettype": [ "bang", "" ],
                                    "patching_rect": [ 314.28572964668274, 771.4286091327667, 34.0, 22.0 ],
                                    "text": "sel 1"
                                }
                            },
                            {
                                "box": {
                                    "format": 6,
                                    "id": "obj-25",
                                    "maxclass": "flonum",
                                    "numinlets": 1,
                                    "numoutlets": 2,
                                    "outlettype": [ "", "bang" ],
                                    "parameter_enable": 0,
                                    "patching_rect": [ 349.45056653022766, 706.5934411287308, 50.0, 22.0 ]
                                }
                            },
                            {
                                "box": {
                                    "id": "obj-16",
                                    "maxclass": "newobj",
                                    "numinlets": 2,
                                    "numoutlets": 1,
                                    "outlettype": [ "float" ],
                                    "patching_rect": [ 314.28572964668274, 678.0220111608505, 88.0, 22.0 ],
                                    "text": "snapshot~ 120"
                                }
                            },
                            {
                                "box": {
                                    "id": "obj-15",
                                    "maxclass": "live.slider",
                                    "numinlets": 1,
                                    "numoutlets": 2,
                                    "outlettype": [ "", "float" ],
                                    "parameter_enable": 1,
                                    "patching_rect": [ 726.3736618757248, 535.1648613214493, 39.0, 142.0 ],
                                    "presentation": 1,
                                    "presentation_rect": [ 572.5925738215446, 307.4073973298073, 39.0, 142.0 ],
                                    "saved_attribute_attributes": {
                                        "valueof": {
                                            "parameter_longname": "live.slider[4]",
                                            "parameter_mmax": 0.25,
                                            "parameter_modmode": 3,
                                            "parameter_shortname": "trigger",
                                            "parameter_type": 0,
                                            "parameter_unitstyle": 1
                                        }
                                    },
                                    "valuepopup": 1,
                                    "varname": "live.slider[1]"
                                }
                            },
                            {
                                "box": {
                                    "id": "obj-14",
                                    "maxclass": "live.slider",
                                    "numinlets": 1,
                                    "numoutlets": 2,
                                    "outlettype": [ "", "float" ],
                                    "parameter_enable": 1,
                                    "patching_rect": [ 479.12090253829956, 534.0659601688385, 39.0, 142.0 ],
                                    "presentation": 1,
                                    "presentation_rect": [ 325.1851745247841, 307.4073973298073, 39.0, 142.0 ],
                                    "saved_attribute_attributes": {
                                        "valueof": {
                                            "parameter_longname": "live.slider[5]",
                                            "parameter_mmax": 0.25,
                                            "parameter_modmode": 3,
                                            "parameter_shortname": "reset",
                                            "parameter_type": 0,
                                            "parameter_unitstyle": 1
                                        }
                                    },
                                    "valuepopup": 1,
                                    "varname": "live.slider"
                                }
                            },
                            {
                                "box": {
                                    "format": 6,
                                    "id": "obj-3",
                                    "maxclass": "flonum",
                                    "numinlets": 1,
                                    "numoutlets": 2,
                                    "outlettype": [ "", "bang" ],
                                    "parameter_enable": 0,
                                    "patching_rect": [ 345.05496191978455, 532.9670590162277, 50.0, 22.0 ]
                                }
                            },
                            {
                                "box": {
                                    "id": "obj-1",
                                    "maxclass": "multislider",
                                    "numinlets": 1,
                                    "numoutlets": 2,
                                    "outlettype": [ "", "" ],
                                    "parameter_enable": 0,
                                    "patching_rect": [ 501.09892559051514, 551.648378610611, 246.0, 107.0 ],
                                    "presentation": 1,
                                    "presentation_rect": [ 346.66665530204773, 324.4444338083267, 246.0, 107.0 ],
                                    "setminmax": [ 0.0, 0.25 ],
                                    "setstyle": 5
                                }
                            },
                            {
                                "box": {
                                    "id": "obj-24",
                                    "maxclass": "newobj",
                                    "numinlets": 6,
                                    "numoutlets": 1,
                                    "outlettype": [ "" ],
                                    "patching_rect": [ 345.05496191978455, 500.00002443790436, 103.0, 22.0 ],
                                    "text": "scale 0 1023 0. 1."
                                }
                            },
                            {
                                "box": {
                                    "id": "obj-26",
                                    "maxclass": "number",
                                    "numinlets": 1,
                                    "numoutlets": 2,
                                    "outlettype": [ "", "bang" ],
                                    "parameter_enable": 0,
                                    "patching_rect": [ 313.18682849407196, 449.45057141780853, 50.0, 22.0 ]
                                }
                            },
                            {
                                "box": {
                                    "id": "obj-23",
                                    "maxclass": "newobj",
                                    "numinlets": 3,
                                    "numoutlets": 1,
                                    "outlettype": [ "signal" ],
                                    "patching_rect": [ 314.28572964668274, 630.769261598587, 49.0, 22.0 ],
                                    "text": "thresh~"
                                }
                            },
                            {
                                "box": {
                                    "id": "obj-21",
                                    "maxclass": "comment",
                                    "numinlets": 1,
                                    "numoutlets": 0,
                                    "patching_rect": [ 567.0329947471619, 518.6813440322876, 150.0, 20.0 ],
                                    "text": "Threshold value!"
                                }
                            },
                            {
                                "box": {
                                    "id": "obj-17",
                                    "maxclass": "newobj",
                                    "numinlets": 1,
                                    "numoutlets": 3,
                                    "outlettype": [ "", "int", "int" ],
                                    "patching_rect": [ 314.28572964668274, 728.5714641809464, 48.0, 22.0 ],
                                    "text": "change"
                                }
                            }
                        ],
                        "lines": [
                            {
                                "patchline": {
                                    "destination": [ "obj-34", 0 ],
                                    "source": [ "obj-14", 0 ]
                                }
                            },
                            {
                                "patchline": {
                                    "destination": [ "obj-35", 0 ],
                                    "source": [ "obj-15", 0 ]
                                }
                            },
                            {
                                "patchline": {
                                    "destination": [ "obj-17", 0 ],
                                    "order": 2,
                                    "source": [ "obj-16", 0 ]
                                }
                            },
                            {
                                "patchline": {
                                    "destination": [ "obj-25", 0 ],
                                    "order": 1,
                                    "source": [ "obj-16", 0 ]
                                }
                            },
                            {
                                "patchline": {
                                    "destination": [ "obj-36", 0 ],
                                    "order": 0,
                                    "source": [ "obj-16", 0 ]
                                }
                            },
                            {
                                "patchline": {
                                    "destination": [ "obj-32", 0 ],
                                    "source": [ "obj-17", 0 ]
                                }
                            },
                            {
                                "patchline": {
                                    "destination": [ "obj-26", 0 ],
                                    "source": [ "obj-2", 0 ]
                                }
                            },
                            {
                                "patchline": {
                                    "destination": [ "obj-31", 0 ],
                                    "source": [ "obj-20", 0 ]
                                }
                            },
                            {
                                "patchline": {
                                    "destination": [ "obj-42", 0 ],
                                    "source": [ "obj-22", 0 ]
                                }
                            },
                            {
                                "patchline": {
                                    "destination": [ "obj-16", 0 ],
                                    "source": [ "obj-23", 0 ]
                                }
                            },
                            {
                                "patchline": {
                                    "destination": [ "obj-3", 0 ],
                                    "source": [ "obj-24", 0 ]
                                }
                            },
                            {
                                "patchline": {
                                    "destination": [ "obj-24", 0 ],
                                    "source": [ "obj-26", 0 ]
                                }
                            },
                            {
                                "patchline": {
                                    "destination": [ "obj-1", 0 ],
                                    "order": 0,
                                    "source": [ "obj-3", 0 ]
                                }
                            },
                            {
                                "patchline": {
                                    "destination": [ "obj-33", 0 ],
                                    "order": 1,
                                    "source": [ "obj-3", 0 ]
                                }
                            },
                            {
                                "patchline": {
                                    "destination": [ "obj-14", 0 ],
                                    "source": [ "obj-31", 0 ]
                                }
                            },
                            {
                                "patchline": {
                                    "destination": [ "obj-78", 0 ],
                                    "source": [ "obj-32", 0 ]
                                }
                            },
                            {
                                "patchline": {
                                    "destination": [ "obj-23", 0 ],
                                    "source": [ "obj-33", 0 ]
                                }
                            },
                            {
                                "patchline": {
                                    "destination": [ "obj-23", 1 ],
                                    "source": [ "obj-34", 0 ]
                                }
                            },
                            {
                                "patchline": {
                                    "destination": [ "obj-23", 2 ],
                                    "source": [ "obj-35", 0 ]
                                }
                            },
                            {
                                "patchline": {
                                    "destination": [ "obj-15", 0 ],
                                    "source": [ "obj-42", 0 ]
                                }
                            }
                        ]
                    },
                    "patching_rect": [ 822.33, 226.73, 49.0, 22.0 ],
                    "text": "patcher"
                }
            },
            {
                "box": {
                    "id": "obj-19",
                    "maxclass": "comment",
                    "numinlets": 1,
                    "numoutlets": 0,
                    "patching_rect": [ 1142.85719871521, 503.1978267431259, 150.0, 20.0 ],
                    "text": "HEEL, range 0. - 1."
                }
            },
            {
                "box": {
                    "id": "obj-18",
                    "maxclass": "comment",
                    "numinlets": 1,
                    "numoutlets": 0,
                    "patching_rect": [ 561.0, 495.50551867485046, 150.0, 20.0 ],
                    "text": "TOE, range 0 - 0.5"
                }
            },
            {
                "box": {
                    "id": "obj-30",
                    "maxclass": "newobj",
                    "numinlets": 1,
                    "numoutlets": 0,
                    "patching_rect": [ 317.91, 387.0, 32.0, 22.0 ],
                    "text": "print"
                }
            },
            {
                "box": {
                    "id": "obj-50",
                    "maxclass": "message",
                    "numinlets": 2,
                    "numoutlets": 1,
                    "outlettype": [ "" ],
                    "patching_rect": [ 1293.4066566228867, 502.1978267431259, 32.0, 22.0 ],
                    "text": "0.22"
                }
            },
            {
                "box": {
                    "id": "obj-51",
                    "maxclass": "message",
                    "numinlets": 2,
                    "numoutlets": 1,
                    "outlettype": [ "" ],
                    "patching_rect": [ 1051.6484030485153, 502.1978267431259, 29.5, 22.0 ],
                    "text": "0.1"
                }
            },
            {
                "box": {
                    "id": "obj-52",
                    "maxclass": "newobj",
                    "numinlets": 1,
                    "numoutlets": 1,
                    "outlettype": [ "bang" ],
                    "patching_rect": [ 1293.4066566228867, 463.73628640174866, 58.0, 22.0 ],
                    "text": "loadbang"
                }
            },
            {
                "box": {
                    "id": "obj-53",
                    "maxclass": "newobj",
                    "numinlets": 1,
                    "numoutlets": 1,
                    "outlettype": [ "bang" ],
                    "patching_rect": [ 1050.5495018959045, 463.73628640174866, 58.0, 22.0 ],
                    "text": "loadbang"
                }
            },
            {
                "box": {
                    "id": "obj-54",
                    "maxclass": "message",
                    "numinlets": 2,
                    "numoutlets": 1,
                    "outlettype": [ "" ],
                    "patching_rect": [ 863.0132201910019, 850.8196477890015, 29.5, 22.0 ],
                    "text": "1"
                }
            },
            {
                "box": {
                    "id": "obj-55",
                    "maxclass": "multislider",
                    "numinlets": 1,
                    "numoutlets": 2,
                    "outlettype": [ "", "" ],
                    "parameter_enable": 0,
                    "patching_rect": [ 1079.4066566228867, 733.6065363883972, 246.0, 107.0 ],
                    "presentation": 1,
                    "presentation_rect": [ 680.7407184243202, 461.4814663529396, 246.0, 107.0 ],
                    "setminmax": [ 0.0, 0.5 ],
                    "setstyle": 5
                }
            },
            {
                "box": {
                    "id": "obj-56",
                    "maxclass": "newobj",
                    "numinlets": 1,
                    "numoutlets": 1,
                    "outlettype": [ "signal" ],
                    "patching_rect": [ 1031.9671835899353, 701.6393241882324, 31.0, 22.0 ],
                    "text": "sig~"
                }
            },
            {
                "box": {
                    "id": "obj-57",
                    "maxclass": "newobj",
                    "numinlets": 1,
                    "numoutlets": 1,
                    "outlettype": [ "signal" ],
                    "patching_rect": [ 1014.2857638597488, 581.318709731102, 31.0, 22.0 ],
                    "text": "sig~"
                }
            },
            {
                "box": {
                    "id": "obj-58",
                    "maxclass": "newobj",
                    "numinlets": 1,
                    "numoutlets": 1,
                    "outlettype": [ "signal" ],
                    "patching_rect": [ 821.9780621528625, 584.6154131889343, 31.0, 22.0 ],
                    "text": "sig~"
                }
            },
            {
                "box": {
                    "id": "obj-59",
                    "maxclass": "newobj",
                    "numinlets": 2,
                    "numoutlets": 2,
                    "outlettype": [ "bang", "" ],
                    "patching_rect": [ 889.242727637291, 813.9344029426575, 34.0, 22.0 ],
                    "text": "sel 1"
                }
            },
            {
                "box": {
                    "format": 6,
                    "id": "obj-60",
                    "maxclass": "flonum",
                    "numinlets": 1,
                    "numoutlets": 2,
                    "outlettype": [ "", "bang" ],
                    "parameter_enable": 0,
                    "patching_rect": [ 924.4886282682419, 749.1803064346313, 50.0, 22.0 ]
                }
            },
            {
                "box": {
                    "id": "obj-61",
                    "maxclass": "newobj",
                    "numinlets": 2,
                    "numoutlets": 1,
                    "outlettype": [ "float" ],
                    "patching_rect": [ 889.242727637291, 720.4917826652527, 88.0, 22.0 ],
                    "text": "snapshot~ 120"
                }
            },
            {
                "box": {
                    "id": "obj-62",
                    "maxclass": "live.slider",
                    "numinlets": 1,
                    "numoutlets": 2,
                    "outlettype": [ "", "float" ],
                    "parameter_enable": 1,
                    "patching_rect": [ 1302.197865843773, 542.8571693897247, 39.0, 142.0 ],
                    "presentation": 1,
                    "presentation_rect": [ 906.6666369438171, 306.6666566133499, 39.0, 142.0 ],
                    "saved_attribute_attributes": {
                        "valueof": {
                            "parameter_longname": "live.slider[2]",
                            "parameter_mmax": 0.5,
                            "parameter_modmode": 3,
                            "parameter_shortname": "trigger",
                            "parameter_type": 0,
                            "parameter_unitstyle": 1
                        }
                    },
                    "valuepopup": 1,
                    "varname": "live.slider[2]"
                }
            },
            {
                "box": {
                    "id": "obj-63",
                    "maxclass": "live.slider",
                    "numinlets": 1,
                    "numoutlets": 2,
                    "outlettype": [ "", "float" ],
                    "parameter_enable": 1,
                    "patching_rect": [ 1054.9451065063477, 541.758268237114, 39.0, 142.0 ],
                    "presentation": 1,
                    "presentation_rect": [ 659.2592376470566, 306.6666566133499, 39.0, 142.0 ],
                    "saved_attribute_attributes": {
                        "valueof": {
                            "parameter_longname": "live.slider[3]",
                            "parameter_mmax": 0.5,
                            "parameter_modmode": 3,
                            "parameter_shortname": "reset",
                            "parameter_type": 0,
                            "parameter_unitstyle": 1
                        }
                    },
                    "valuepopup": 1,
                    "varname": "live.slider[3]"
                }
            },
            {
                "box": {
                    "format": 6,
                    "id": "obj-64",
                    "maxclass": "flonum",
                    "numinlets": 1,
                    "numoutlets": 2,
                    "outlettype": [ "", "bang" ],
                    "parameter_enable": 0,
                    "patching_rect": [ 920.8791658878326, 540.6593670845032, 50.0, 22.0 ]
                }
            },
            {
                "box": {
                    "id": "obj-65",
                    "maxclass": "multislider",
                    "numinlets": 1,
                    "numoutlets": 2,
                    "outlettype": [ "", "" ],
                    "parameter_enable": 0,
                    "patching_rect": [ 1076.9231295585632, 559.3406866788864, 246.0, 107.0 ],
                    "presentation": 1,
                    "presentation_rect": [ 680.7407184243202, 324.4444338083267, 246.0, 107.0 ],
                    "setminmax": [ 0.0, 1.0 ],
                    "setstyle": 5
                }
            },
            {
                "box": {
                    "id": "obj-66",
                    "maxclass": "newobj",
                    "numinlets": 6,
                    "numoutlets": 1,
                    "outlettype": [ "" ],
                    "patching_rect": [ 920.8791658878326, 507.6923325061798, 103.0, 22.0 ],
                    "text": "scale 0 1023 0. 1."
                }
            },
            {
                "box": {
                    "id": "obj-67",
                    "maxclass": "newobj",
                    "numinlets": 2,
                    "numoutlets": 3,
                    "outlettype": [ "signal", "signal", "bang" ],
                    "patching_rect": [ 831.0460079908371, 885.2458763122559, 57.0, 22.0 ],
                    "text": "sfplay~ 2"
                }
            },
            {
                "box": {
                    "id": "obj-68",
                    "maxclass": "number",
                    "numinlets": 1,
                    "numoutlets": 2,
                    "outlettype": [ "", "bang" ],
                    "parameter_enable": 0,
                    "patching_rect": [ 889.01103246212, 457.142879486084, 50.0, 22.0 ]
                }
            },
            {
                "box": {
                    "id": "obj-69",
                    "maxclass": "newobj",
                    "numinlets": 3,
                    "numoutlets": 1,
                    "outlettype": [ "signal" ],
                    "patching_rect": [ 890.1099336147308, 638.4615696668625, 49.0, 22.0 ],
                    "text": "thresh~"
                }
            },
            {
                "box": {
                    "id": "obj-70",
                    "maxclass": "comment",
                    "numinlets": 1,
                    "numoutlets": 0,
                    "patching_rect": [ 1142.85719871521, 526.373652100563, 150.0, 20.0 ],
                    "text": "Threshold value!"
                }
            },
            {
                "box": {
                    "id": "obj-71",
                    "maxclass": "newobj",
                    "numinlets": 1,
                    "numoutlets": 3,
                    "outlettype": [ "", "int", "int" ],
                    "patching_rect": [ 889.242727637291, 770.4917812347412, 48.0, 22.0 ],
                    "text": "change"
                }
            },
            {
                "box": {
                    "id": "obj-47",
                    "maxclass": "newobj",
                    "numinlets": 1,
                    "numoutlets": 2,
                    "outlettype": [ "int", "int" ],
                    "patching_rect": [ 779.1209172010422, 395.60441493988037, 67.0, 22.0 ],
                    "text": "unpack 0 0"
                }
            },
            {
                "box": {
                    "id": "obj-46",
                    "maxclass": "comment",
                    "numinlets": 1,
                    "numoutlets": 0,
                    "patching_rect": [ 445.0, 303.0, 291.0, 20.0 ],
                    "text": "incase both micro controllers are on, only work with L"
                }
            },
            {
                "box": {
                    "id": "obj-43",
                    "maxclass": "newobj",
                    "numinlets": 3,
                    "numoutlets": 3,
                    "outlettype": [ "", "", "" ],
                    "patching_rect": [ 345.4100000000001, 303.0, 82.0, 22.0 ],
                    "text": "route left right"
                }
            },
            {
                "box": {
                    "id": "obj-40",
                    "linecount": 3,
                    "maxclass": "comment",
                    "numinlets": 1,
                    "numoutlets": 0,
                    "patching_rect": [ 317.91, 39.0, 319.0, 47.0 ],
                    "text": "Adapting max patch:\n- as if 1 micro controller (i only have one insole built)\n- heel and toe sections"
                }
            },
            {
                "box": {
                    "id": "obj-29",
                    "linecount": 3,
                    "maxclass": "comment",
                    "numinlets": 1,
                    "numoutlets": 0,
                    "patching_rect": [ 517.0, 118.0, 150.0, 47.0 ],
                    "text": "Using the same insole_ble.js file as in section 2!"
                }
            },
            {
                "box": {
                    "id": "obj-12",
                    "linecount": 2,
                    "maxclass": "comment",
                    "numinlets": 1,
                    "numoutlets": 0,
                    "patching_rect": [ 517.0, 168.0, 150.0, 33.0 ],
                    "text": "Initially working with \"L\" microcontroller!"
                }
            },
            {
                "box": {
                    "id": "obj-42",
                    "maxclass": "message",
                    "numinlets": 2,
                    "numoutlets": 1,
                    "outlettype": [ "" ],
                    "patching_rect": [ 717.5824526548386, 494.50551867485046, 32.0, 22.0 ],
                    "text": "0.22"
                }
            },
            {
                "box": {
                    "id": "obj-31",
                    "maxclass": "message",
                    "numinlets": 2,
                    "numoutlets": 1,
                    "outlettype": [ "" ],
                    "patching_rect": [ 475.8241990804672, 494.50551867485046, 29.5, 22.0 ],
                    "text": "0.1"
                }
            },
            {
                "box": {
                    "id": "obj-22",
                    "maxclass": "newobj",
                    "numinlets": 1,
                    "numoutlets": 1,
                    "outlettype": [ "bang" ],
                    "patching_rect": [ 717.5824526548386, 456.0439783334732, 58.0, 22.0 ],
                    "text": "loadbang"
                }
            },
            {
                "box": {
                    "id": "obj-20",
                    "maxclass": "newobj",
                    "numinlets": 1,
                    "numoutlets": 1,
                    "outlettype": [ "bang" ],
                    "patching_rect": [ 474.72529792785645, 456.0439783334732, 58.0, 22.0 ],
                    "text": "loadbang"
                }
            },
            {
                "box": {
                    "id": "obj-78",
                    "maxclass": "message",
                    "numinlets": 2,
                    "numoutlets": 1,
                    "outlettype": [ "" ],
                    "patching_rect": [ 287.91210198402405, 808.7912483215332, 29.5, 22.0 ],
                    "text": "1"
                }
            },
            {
                "box": {
                    "id": "obj-38",
                    "maxclass": "newobj",
                    "numinlets": 3,
                    "numoutlets": 3,
                    "outlettype": [ "bang", "bang", "" ],
                    "patching_rect": [ 48.000001430511475, 621.4285655021667, 44.0, 22.0 ],
                    "text": "sel 1 0"
                }
            },
            {
                "box": {
                    "id": "obj-37",
                    "maxclass": "toggle",
                    "numinlets": 1,
                    "numoutlets": 1,
                    "outlettype": [ "int" ],
                    "parameter_enable": 0,
                    "patching_rect": [ 22.000001430511475, 590.0000175833702, 24.0, 24.0 ],
                    "presentation": 1,
                    "presentation_rect": [ 239.25925141572952, 425.925911962986, 47.727272272109985, 47.727272272109985 ]
                }
            },
            {
                "box": {
                    "id": "obj-36",
                    "maxclass": "multislider",
                    "numinlets": 1,
                    "numoutlets": 2,
                    "outlettype": [ "", "" ],
                    "parameter_enable": 0,
                    "patching_rect": [ 504.3956290483475, 691.2088249921799, 246.0, 107.0 ],
                    "presentation": 1,
                    "presentation_rect": [ 346.66665530204773, 461.4814663529396, 246.0, 107.0 ],
                    "setminmax": [ 0.0, 0.5 ],
                    "setstyle": 5
                }
            },
            {
                "box": {
                    "id": "obj-35",
                    "maxclass": "newobj",
                    "numinlets": 1,
                    "numoutlets": 1,
                    "outlettype": [ "signal" ],
                    "patching_rect": [ 438.46155989170074, 614.2857443094254, 31.0, 22.0 ],
                    "text": "sig~"
                }
            },
            {
                "box": {
                    "id": "obj-34",
                    "maxclass": "newobj",
                    "numinlets": 1,
                    "numoutlets": 1,
                    "outlettype": [ "signal" ],
                    "patching_rect": [ 438.46155989170074, 573.6264016628265, 31.0, 22.0 ],
                    "text": "sig~"
                }
            },
            {
                "box": {
                    "id": "obj-33",
                    "maxclass": "newobj",
                    "numinlets": 1,
                    "numoutlets": 1,
                    "outlettype": [ "signal" ],
                    "patching_rect": [ 246.15385818481445, 576.9231051206589, 31.0, 22.0 ],
                    "text": "sig~"
                }
            },
            {
                "box": {
                    "id": "obj-32",
                    "maxclass": "newobj",
                    "numinlets": 2,
                    "numoutlets": 2,
                    "outlettype": [ "bang", "" ],
                    "patching_rect": [ 314.28572964668274, 771.4286091327667, 34.0, 22.0 ],
                    "text": "sel 1"
                }
            },
            {
                "box": {
                    "format": 6,
                    "id": "obj-25",
                    "maxclass": "flonum",
                    "numinlets": 1,
                    "numoutlets": 2,
                    "outlettype": [ "", "bang" ],
                    "parameter_enable": 0,
                    "patching_rect": [ 349.45056653022766, 706.5934411287308, 50.0, 22.0 ]
                }
            },
            {
                "box": {
                    "id": "obj-16",
                    "maxclass": "newobj",
                    "numinlets": 2,
                    "numoutlets": 1,
                    "outlettype": [ "float" ],
                    "patching_rect": [ 314.28572964668274, 678.0220111608505, 88.0, 22.0 ],
                    "text": "snapshot~ 120"
                }
            },
            {
                "box": {
                    "id": "obj-15",
                    "maxclass": "live.slider",
                    "numinlets": 1,
                    "numoutlets": 2,
                    "outlettype": [ "", "float" ],
                    "parameter_enable": 1,
                    "patching_rect": [ 726.3736618757248, 535.1648613214493, 39.0, 142.0 ],
                    "presentation": 1,
                    "presentation_rect": [ 572.5925738215446, 307.4073973298073, 39.0, 142.0 ],
                    "saved_attribute_attributes": {
                        "valueof": {
                            "parameter_longname": "live.slider[1]",
                            "parameter_mmax": 0.25,
                            "parameter_modmode": 3,
                            "parameter_shortname": "trigger",
                            "parameter_type": 0,
                            "parameter_unitstyle": 1
                        }
                    },
                    "valuepopup": 1,
                    "varname": "live.slider[1]"
                }
            },
            {
                "box": {
                    "id": "obj-14",
                    "maxclass": "live.slider",
                    "numinlets": 1,
                    "numoutlets": 2,
                    "outlettype": [ "", "float" ],
                    "parameter_enable": 1,
                    "patching_rect": [ 479.12090253829956, 534.0659601688385, 39.0, 142.0 ],
                    "presentation": 1,
                    "presentation_rect": [ 325.1851745247841, 307.4073973298073, 39.0, 142.0 ],
                    "saved_attribute_attributes": {
                        "valueof": {
                            "parameter_longname": "live.slider",
                            "parameter_mmax": 0.25,
                            "parameter_modmode": 3,
                            "parameter_shortname": "reset",
                            "parameter_type": 0,
                            "parameter_unitstyle": 1
                        }
                    },
                    "valuepopup": 1,
                    "varname": "live.slider"
                }
            },
            {
                "box": {
                    "format": 6,
                    "id": "obj-3",
                    "maxclass": "flonum",
                    "numinlets": 1,
                    "numoutlets": 2,
                    "outlettype": [ "", "bang" ],
                    "parameter_enable": 0,
                    "patching_rect": [ 345.05496191978455, 532.9670590162277, 50.0, 22.0 ]
                }
            },
            {
                "box": {
                    "id": "obj-1",
                    "maxclass": "multislider",
                    "numinlets": 1,
                    "numoutlets": 2,
                    "outlettype": [ "", "" ],
                    "parameter_enable": 0,
                    "patching_rect": [ 501.09892559051514, 551.648378610611, 246.0, 107.0 ],
                    "presentation": 1,
                    "presentation_rect": [ 346.66665530204773, 324.4444338083267, 246.0, 107.0 ],
                    "setminmax": [ 0.0, 0.25 ],
                    "setstyle": 5
                }
            },
            {
                "box": {
                    "id": "obj-24",
                    "maxclass": "newobj",
                    "numinlets": 6,
                    "numoutlets": 1,
                    "outlettype": [ "" ],
                    "patching_rect": [ 345.05496191978455, 500.00002443790436, 103.0, 22.0 ],
                    "text": "scale 0 1023 0. 1."
                }
            },
            {
                "box": {
                    "id": "obj-2",
                    "maxclass": "message",
                    "numinlets": 2,
                    "numoutlets": 1,
                    "outlettype": [ "" ],
                    "patching_rect": [ 369.0, 210.5, 63.0, 22.0 ],
                    "text": "script stop"
                }
            },
            {
                "box": {
                    "id": "obj-39",
                    "maxclass": "message",
                    "numinlets": 2,
                    "numoutlets": 1,
                    "outlettype": [ "" ],
                    "patching_rect": [ 290.0, 210.5, 64.0, 22.0 ],
                    "text": "script start"
                }
            },
            {
                "box": {
                    "fontsize": 12.0,
                    "id": "obj-5",
                    "lastchannelcount": 0,
                    "maxclass": "live.gain~",
                    "numinlets": 2,
                    "numoutlets": 5,
                    "orientation": 1,
                    "outlettype": [ "signal", "signal", "", "float", "list" ],
                    "parameter_enable": 1,
                    "patching_rect": [ 210.98902130126953, 897.8022416830063, 129.0, 39.0 ],
                    "saved_attribute_attributes": {
                        "valueof": {
                            "parameter_initial": [ 6.0 ],
                            "parameter_initial_enable": 1,
                            "parameter_longname": "live.gain~",
                            "parameter_mmax": 6.0,
                            "parameter_mmin": -70.0,
                            "parameter_modmode": 0,
                            "parameter_shortname": "live.gain~",
                            "parameter_type": 0,
                            "parameter_unitstyle": 4
                        }
                    },
                    "showname": 0,
                    "varname": "live.gain~"
                }
            },
            {
                "box": {
                    "id": "obj-7",
                    "local": 1,
                    "maxclass": "ezdac~",
                    "numinlets": 2,
                    "numoutlets": 0,
                    "patching_rect": [ 214.28572475910187, 967.0330142974854, 44.0, 44.0 ],
                    "prototypename": "helpfile"
                }
            },
            {
                "box": {
                    "id": "obj-28",
                    "maxclass": "newobj",
                    "numinlets": 2,
                    "numoutlets": 3,
                    "outlettype": [ "signal", "signal", "bang" ],
                    "patching_rect": [ 256.04396855831146, 842.8571840524673, 57.0, 22.0 ],
                    "text": "sfplay~ 2"
                }
            },
            {
                "box": {
                    "id": "obj-26",
                    "maxclass": "number",
                    "numinlets": 1,
                    "numoutlets": 2,
                    "outlettype": [ "", "bang" ],
                    "parameter_enable": 0,
                    "patching_rect": [ 313.18682849407196, 449.45057141780853, 50.0, 22.0 ]
                }
            },
            {
                "box": {
                    "id": "obj-23",
                    "maxclass": "newobj",
                    "numinlets": 3,
                    "numoutlets": 1,
                    "outlettype": [ "signal" ],
                    "patching_rect": [ 314.28572964668274, 630.769261598587, 49.0, 22.0 ],
                    "text": "thresh~"
                }
            },
            {
                "box": {
                    "id": "obj-21",
                    "maxclass": "comment",
                    "numinlets": 1,
                    "numoutlets": 0,
                    "patching_rect": [ 567.0329947471619, 518.6813440322876, 150.0, 20.0 ],
                    "text": "Threshold value!"
                }
            },
            {
                "box": {
                    "id": "obj-17",
                    "maxclass": "newobj",
                    "numinlets": 1,
                    "numoutlets": 3,
                    "outlettype": [ "", "int", "int" ],
                    "patching_rect": [ 314.28572964668274, 728.5714641809464, 48.0, 22.0 ],
                    "text": "change"
                }
            },
            {
                "box": {
                    "id": "obj-13",
                    "maxclass": "comment",
                    "numinlets": 1,
                    "numoutlets": 0,
                    "patching_rect": [ 420.0, 343.0, 150.0, 20.0 ],
                    "text": "String -> number"
                }
            },
            {
                "box": {
                    "id": "obj-11",
                    "maxclass": "newobj",
                    "numinlets": 1,
                    "numoutlets": 1,
                    "outlettype": [ "" ],
                    "patching_rect": [ 317.91, 342.0, 71.0, 22.0 ],
                    "text": "fromsymbol"
                }
            },
            {
                "box": {
                    "id": "obj-10",
                    "linecount": 2,
                    "maxclass": "comment",
                    "numinlets": 1,
                    "numoutlets": 0,
                    "patching_rect": [ 549.0, 210.5, 150.0, 33.0 ],
                    "text": "Library that talks with bluetooth"
                }
            },
            {
                "box": {
                    "id": "obj-8",
                    "maxclass": "message",
                    "numinlets": 2,
                    "numoutlets": 1,
                    "outlettype": [ "" ],
                    "patching_rect": [ 282.0, 143.0, 157.0, 22.0 ],
                    "text": "script npm install noble-mac"
                }
            },
            {
                "box": {
                    "id": "obj-6",
                    "linecount": 2,
                    "maxclass": "comment",
                    "numinlets": 1,
                    "numoutlets": 0,
                    "patching_rect": [ 472.0, 261.31999999999994, 150.0, 33.0 ],
                    "text": "Control a local node.js script through max"
                }
            },
            {
                "box": {
                    "id": "obj-4",
                    "maxclass": "newobj",
                    "numinlets": 1,
                    "numoutlets": 2,
                    "outlettype": [ "", "" ],
                    "patching_rect": [ 317.91, 266.82, 137.0, 22.0 ],
                    "saved_object_attributes": {
                        "autostart": 0,
                        "defer": 0,
                        "node_bin_path": "",
                        "npm_bin_path": "",
                        "watch": 0
                    },
                    "text": "node.script insole_ble.js",
                    "textfile": {
                        "filename": "insole_ble.js",
                        "flags": 0,
                        "embed": 0,
                        "autowatch": 1
                    }
                }
            }
        ],
        "lines": [
            {
                "patchline": {
                    "destination": [ "obj-30", 0 ],
                    "order": 1,
                    "source": [ "obj-11", 0 ]
                }
            },
            {
                "patchline": {
                    "destination": [ "obj-47", 0 ],
                    "order": 0,
                    "source": [ "obj-11", 0 ]
                }
            },
            {
                "patchline": {
                    "destination": [ "obj-34", 0 ],
                    "source": [ "obj-14", 0 ]
                }
            },
            {
                "patchline": {
                    "destination": [ "obj-35", 0 ],
                    "source": [ "obj-15", 0 ]
                }
            },
            {
                "patchline": {
                    "destination": [ "obj-17", 0 ],
                    "order": 2,
                    "source": [ "obj-16", 0 ]
                }
            },
            {
                "patchline": {
                    "destination": [ "obj-25", 0 ],
                    "order": 1,
                    "source": [ "obj-16", 0 ]
                }
            },
            {
                "patchline": {
                    "destination": [ "obj-36", 0 ],
                    "order": 0,
                    "source": [ "obj-16", 0 ]
                }
            },
            {
                "patchline": {
                    "destination": [ "obj-32", 0 ],
                    "source": [ "obj-17", 0 ]
                }
            },
            {
                "patchline": {
                    "destination": [ "obj-4", 0 ],
                    "source": [ "obj-2", 0 ]
                }
            },
            {
                "patchline": {
                    "destination": [ "obj-31", 0 ],
                    "source": [ "obj-20", 0 ]
                }
            },
            {
                "patchline": {
                    "destination": [ "obj-42", 0 ],
                    "source": [ "obj-22", 0 ]
                }
            },
            {
                "patchline": {
                    "destination": [ "obj-16", 0 ],
                    "source": [ "obj-23", 0 ]
                }
            },
            {
                "patchline": {
                    "destination": [ "obj-3", 0 ],
                    "source": [ "obj-24", 0 ]
                }
            },
            {
                "patchline": {
                    "destination": [ "obj-24", 0 ],
                    "source": [ "obj-26", 0 ]
                }
            },
            {
                "patchline": {
                    "destination": [ "obj-5", 1 ],
                    "source": [ "obj-28", 1 ]
                }
            },
            {
                "patchline": {
                    "destination": [ "obj-5", 0 ],
                    "source": [ "obj-28", 0 ]
                }
            },
            {
                "patchline": {
                    "destination": [ "obj-1", 0 ],
                    "order": 0,
                    "source": [ "obj-3", 0 ]
                }
            },
            {
                "patchline": {
                    "destination": [ "obj-33", 0 ],
                    "order": 1,
                    "source": [ "obj-3", 0 ]
                }
            },
            {
                "patchline": {
                    "destination": [ "obj-14", 0 ],
                    "source": [ "obj-31", 0 ]
                }
            },
            {
                "patchline": {
                    "destination": [ "obj-78", 0 ],
                    "source": [ "obj-32", 0 ]
                }
            },
            {
                "patchline": {
                    "destination": [ "obj-23", 0 ],
                    "source": [ "obj-33", 0 ]
                }
            },
            {
                "patchline": {
                    "destination": [ "obj-23", 1 ],
                    "source": [ "obj-34", 0 ]
                }
            },
            {
                "patchline": {
                    "destination": [ "obj-23", 2 ],
                    "source": [ "obj-35", 0 ]
                }
            },
            {
                "patchline": {
                    "destination": [ "obj-38", 0 ],
                    "order": 1,
                    "source": [ "obj-37", 0 ]
                }
            },
            {
                "patchline": {
                    "destination": [ "obj-7", 0 ],
                    "order": 0,
                    "source": [ "obj-37", 0 ]
                }
            },
            {
                "patchline": {
                    "destination": [ "obj-2", 0 ],
                    "source": [ "obj-38", 1 ]
                }
            },
            {
                "patchline": {
                    "destination": [ "obj-39", 0 ],
                    "source": [ "obj-38", 0 ]
                }
            },
            {
                "patchline": {
                    "destination": [ "obj-4", 0 ],
                    "source": [ "obj-39", 0 ]
                }
            },
            {
                "patchline": {
                    "destination": [ "obj-43", 0 ],
                    "source": [ "obj-4", 0 ]
                }
            },
            {
                "patchline": {
                    "destination": [ "obj-15", 0 ],
                    "source": [ "obj-42", 0 ]
                }
            },
            {
                "patchline": {
                    "destination": [ "obj-11", 0 ],
                    "source": [ "obj-43", 0 ]
                }
            },
            {
                "patchline": {
                    "destination": [ "obj-26", 0 ],
                    "source": [ "obj-47", 0 ]
                }
            },
            {
                "patchline": {
                    "destination": [ "obj-68", 0 ],
                    "source": [ "obj-47", 1 ]
                }
            },
            {
                "patchline": {
                    "destination": [ "obj-7", 1 ],
                    "source": [ "obj-5", 1 ]
                }
            },
            {
                "patchline": {
                    "destination": [ "obj-7", 0 ],
                    "source": [ "obj-5", 0 ]
                }
            },
            {
                "patchline": {
                    "destination": [ "obj-62", 0 ],
                    "source": [ "obj-50", 0 ]
                }
            },
            {
                "patchline": {
                    "destination": [ "obj-63", 0 ],
                    "source": [ "obj-51", 0 ]
                }
            },
            {
                "patchline": {
                    "destination": [ "obj-50", 0 ],
                    "source": [ "obj-52", 0 ]
                }
            },
            {
                "patchline": {
                    "destination": [ "obj-51", 0 ],
                    "source": [ "obj-53", 0 ]
                }
            },
            {
                "patchline": {
                    "destination": [ "obj-67", 0 ],
                    "source": [ "obj-54", 0 ]
                }
            },
            {
                "patchline": {
                    "destination": [ "obj-69", 2 ],
                    "source": [ "obj-56", 0 ]
                }
            },
            {
                "patchline": {
                    "destination": [ "obj-69", 1 ],
                    "source": [ "obj-57", 0 ]
                }
            },
            {
                "patchline": {
                    "destination": [ "obj-69", 0 ],
                    "source": [ "obj-58", 0 ]
                }
            },
            {
                "patchline": {
                    "destination": [ "obj-54", 0 ],
                    "source": [ "obj-59", 0 ]
                }
            },
            {
                "patchline": {
                    "destination": [ "obj-55", 0 ],
                    "order": 0,
                    "source": [ "obj-61", 0 ]
                }
            },
            {
                "patchline": {
                    "destination": [ "obj-60", 0 ],
                    "order": 1,
                    "source": [ "obj-61", 0 ]
                }
            },
            {
                "patchline": {
                    "destination": [ "obj-71", 0 ],
                    "order": 2,
                    "source": [ "obj-61", 0 ]
                }
            },
            {
                "patchline": {
                    "destination": [ "obj-56", 0 ],
                    "source": [ "obj-62", 0 ]
                }
            },
            {
                "patchline": {
                    "destination": [ "obj-57", 0 ],
                    "source": [ "obj-63", 0 ]
                }
            },
            {
                "patchline": {
                    "destination": [ "obj-58", 0 ],
                    "order": 1,
                    "source": [ "obj-64", 0 ]
                }
            },
            {
                "patchline": {
                    "destination": [ "obj-65", 0 ],
                    "order": 0,
                    "source": [ "obj-64", 0 ]
                }
            },
            {
                "patchline": {
                    "destination": [ "obj-64", 0 ],
                    "source": [ "obj-66", 0 ]
                }
            },
            {
                "patchline": {
                    "destination": [ "obj-66", 0 ],
                    "source": [ "obj-68", 0 ]
                }
            },
            {
                "patchline": {
                    "destination": [ "obj-61", 0 ],
                    "source": [ "obj-69", 0 ]
                }
            },
            {
                "patchline": {
                    "destination": [ "obj-59", 0 ],
                    "source": [ "obj-71", 0 ]
                }
            },
            {
                "patchline": {
                    "destination": [ "obj-2", 0 ],
                    "order": 0,
                    "source": [ "obj-8", 0 ]
                }
            },
            {
                "patchline": {
                    "destination": [ "obj-39", 0 ],
                    "order": 1,
                    "source": [ "obj-8", 0 ]
                }
            }
        ],
        "parameters": {
            "obj-14": [ "live.slider", "reset", 0 ],
            "obj-15": [ "live.slider[1]", "trigger", 0 ],
            "obj-44::obj-14": [ "live.slider[5]", "reset", 0 ],
            "obj-44::obj-15": [ "live.slider[4]", "trigger", 0 ],
            "obj-5": [ "live.gain~", "live.gain~", 0 ],
            "obj-62": [ "live.slider[2]", "trigger", 0 ],
            "obj-63": [ "live.slider[3]", "reset", 0 ],
            "parameterbanks": {
                "0": {
                    "index": 0,
                    "name": "",
                    "parameters": [ "-", "-", "-", "-", "-", "-", "-", "-" ],
                    "buttons": [ "-", "-", "-", "-", "-", "-", "-", "-" ]
                }
            },
            "inherited_shortname": 1
        },
        "autosave": 0
    }
}