{
    "patcher": {
        "fileversion": 1,
        "appversion": {
            "major": 9,
            "minor": 1,
            "revision": 2,
            "architecture": "x64",
            "modernui": 1
        },
        "classnamespace": "box",
        "rect": [ 33.0, 95.0, 1002.0, 767.0 ],
        "boxes": [
            {
                "box": {
                    "id": "obj-72",
                    "maxclass": "comment",
                    "numinlets": 1,
                    "numoutlets": 0,
                    "patching_rect": [ 111.11111640930176, 197.22223162651062, 109.72222745418549, 20.0 ],
                    "text": "Initialisation patch!"
                }
            },
            {
                "box": {
                    "id": "obj-71",
                    "maxclass": "newobj",
                    "numinlets": 2,
                    "numoutlets": 1,
                    "outlettype": [ "" ],
                    "patcher": {
                        "fileversion": 1,
                        "appversion": {
                            "major": 9,
                            "minor": 1,
                            "revision": 2,
                            "architecture": "x64",
                            "modernui": 1
                        },
                        "classnamespace": "box",
                        "rect": [ 59.0, 114.0, 1000.0, 690.0 ],
                        "boxes": [
                            {
                                "box": {
                                    "id": "obj-46",
                                    "maxclass": "comment",
                                    "numinlets": 1,
                                    "numoutlets": 0,
                                    "patching_rect": [ 213.0, 285.0, 291.0, 20.0 ],
                                    "text": "incase both micro controllers are on, only work with L"
                                }
                            },
                            {
                                "box": {
                                    "id": "obj-43",
                                    "maxclass": "newobj",
                                    "numinlets": 3,
                                    "numoutlets": 3,
                                    "outlettype": [ "", "", "" ],
                                    "patching_rect": [ 113.41000000000008, 285.0, 82.0, 22.0 ],
                                    "text": "route left right"
                                }
                            },
                            {
                                "box": {
                                    "id": "obj-29",
                                    "linecount": 3,
                                    "maxclass": "comment",
                                    "numinlets": 1,
                                    "numoutlets": 0,
                                    "patching_rect": [ 285.0, 100.0, 150.0, 47.0 ],
                                    "text": "Using the same insole_ble.js file as in section 2!"
                                }
                            },
                            {
                                "box": {
                                    "id": "obj-12",
                                    "linecount": 2,
                                    "maxclass": "comment",
                                    "numinlets": 1,
                                    "numoutlets": 0,
                                    "patching_rect": [ 285.0, 150.0, 150.0, 33.0 ],
                                    "text": "Initially working with \"L\" microcontroller!"
                                }
                            },
                            {
                                "box": {
                                    "id": "obj-2",
                                    "maxclass": "message",
                                    "numinlets": 2,
                                    "numoutlets": 1,
                                    "outlettype": [ "" ],
                                    "patching_rect": [ 137.0, 192.5, 63.0, 22.0 ],
                                    "text": "script stop"
                                }
                            },
                            {
                                "box": {
                                    "id": "obj-39",
                                    "maxclass": "message",
                                    "numinlets": 2,
                                    "numoutlets": 1,
                                    "outlettype": [ "" ],
                                    "patching_rect": [ 58.0, 192.5, 64.0, 22.0 ],
                                    "text": "script start"
                                }
                            },
                            {
                                "box": {
                                    "id": "obj-13",
                                    "maxclass": "comment",
                                    "numinlets": 1,
                                    "numoutlets": 0,
                                    "patching_rect": [ 188.0, 325.0, 150.0, 20.0 ],
                                    "text": "String -> number"
                                }
                            },
                            {
                                "box": {
                                    "id": "obj-11",
                                    "maxclass": "newobj",
                                    "numinlets": 1,
                                    "numoutlets": 1,
                                    "outlettype": [ "" ],
                                    "patching_rect": [ 85.91000000000003, 324.0, 71.0, 22.0 ],
                                    "text": "fromsymbol"
                                }
                            },
                            {
                                "box": {
                                    "id": "obj-10",
                                    "linecount": 2,
                                    "maxclass": "comment",
                                    "numinlets": 1,
                                    "numoutlets": 0,
                                    "patching_rect": [ 317.0, 192.5, 150.0, 33.0 ],
                                    "text": "Library that talks with bluetooth"
                                }
                            },
                            {
                                "box": {
                                    "id": "obj-8",
                                    "maxclass": "message",
                                    "numinlets": 2,
                                    "numoutlets": 1,
                                    "outlettype": [ "" ],
                                    "patching_rect": [ 50.0, 125.0, 157.0, 22.0 ],
                                    "text": "script npm install noble-mac"
                                }
                            },
                            {
                                "box": {
                                    "id": "obj-6",
                                    "linecount": 2,
                                    "maxclass": "comment",
                                    "numinlets": 1,
                                    "numoutlets": 0,
                                    "patching_rect": [ 240.0, 243.31999999999994, 150.0, 33.0 ],
                                    "text": "Control a local node.js script through max"
                                }
                            },
                            {
                                "box": {
                                    "id": "obj-4",
                                    "maxclass": "newobj",
                                    "numinlets": 1,
                                    "numoutlets": 2,
                                    "outlettype": [ "", "" ],
                                    "patching_rect": [ 85.91000000000003, 248.82, 137.0, 22.0 ],
                                    "saved_object_attributes": {
                                        "autostart": 0,
                                        "defer": 0,
                                        "node_bin_path": "",
                                        "npm_bin_path": "",
                                        "watch": 0
                                    },
                                    "text": "node.script insole_ble.js",
                                    "textfile": {
                                        "filename": "insole_ble.js",
                                        "flags": 0,
                                        "embed": 0,
                                        "autowatch": 1
                                    }
                                }
                            },
                            {
                                "box": {
                                    "comment": "",
                                    "id": "obj-67",
                                    "index": 1,
                                    "maxclass": "inlet",
                                    "numinlets": 0,
                                    "numoutlets": 1,
                                    "outlettype": [ "bang" ],
                                    "patching_rect": [ 58.0, 40.0, 30.0, 30.0 ]
                                }
                            },
                            {
                                "box": {
                                    "comment": "",
                                    "id": "obj-68",
                                    "index": 2,
                                    "maxclass": "inlet",
                                    "numinlets": 0,
                                    "numoutlets": 1,
                                    "outlettype": [ "bang" ],
                                    "patching_rect": [ 137.0, 40.0, 30.0, 30.0 ]
                                }
                            },
                            {
                                "box": {
                                    "comment": "",
                                    "id": "obj-69",
                                    "index": 1,
                                    "maxclass": "outlet",
                                    "numinlets": 1,
                                    "numoutlets": 0,
                                    "patching_rect": [ 85.91000400000001, 406.0, 30.0, 30.0 ]
                                }
                            }
                        ],
                        "lines": [
                            {
                                "patchline": {
                                    "destination": [ "obj-69", 0 ],
                                    "source": [ "obj-11", 0 ]
                                }
                            },
                            {
                                "patchline": {
                                    "destination": [ "obj-4", 0 ],
                                    "source": [ "obj-2", 0 ]
                                }
                            },
                            {
                                "patchline": {
                                    "destination": [ "obj-4", 0 ],
                                    "source": [ "obj-39", 0 ]
                                }
                            },
                            {
                                "patchline": {
                                    "destination": [ "obj-43", 0 ],
                                    "source": [ "obj-4", 0 ]
                                }
                            },
                            {
                                "patchline": {
                                    "destination": [ "obj-11", 0 ],
                                    "source": [ "obj-43", 0 ]
                                }
                            },
                            {
                                "patchline": {
                                    "destination": [ "obj-39", 0 ],
                                    "source": [ "obj-67", 0 ]
                                }
                            },
                            {
                                "patchline": {
                                    "destination": [ "obj-2", 0 ],
                                    "source": [ "obj-68", 0 ]
                                }
                            },
                            {
                                "patchline": {
                                    "destination": [ "obj-2", 0 ],
                                    "order": 0,
                                    "source": [ "obj-8", 0 ]
                                }
                            },
                            {
                                "patchline": {
                                    "destination": [ "obj-39", 0 ],
                                    "order": 1,
                                    "source": [ "obj-8", 0 ]
                                }
                            }
                        ]
                    },
                    "patching_rect": [ 155.55556297302246, 243.0555671453476, 18.749998211860657, 22.0 ],
                    "text": "p"
                }
            },
            {
                "box": {
                    "id": "obj-66",
                    "maxclass": "comment",
                    "numinlets": 1,
                    "numoutlets": 0,
                    "patching_rect": [ 479.16668951511383, 209.72223222255707, 150.0, 20.0 ],
                    "text": "blue A0"
                }
            },
            {
                "box": {
                    "id": "obj-61",
                    "maxclass": "comment",
                    "numinlets": 1,
                    "numoutlets": 0,
                    "patching_rect": [ 805.5555939674377, 186.11111998558044, 150.0, 20.0 ],
                    "text": "yellow A1"
                }
            },
            {
                "box": {
                    "id": "obj-45",
                    "maxclass": "newobj",
                    "numinlets": 3,
                    "numoutlets": 3,
                    "outlettype": [ "", "", "float" ],
                    "patcher": {
                        "fileversion": 1,
                        "appversion": {
                            "major": 9,
                            "minor": 1,
                            "revision": 2,
                            "architecture": "x64",
                            "modernui": 1
                        },
                        "classnamespace": "box",
                        "rect": [ 824.0, 95.0, 612.0, 766.0 ],
                        "boxes": [
                            {
                                "box": {
                                    "comment": "",
                                    "id": "obj-9",
                                    "index": 2,
                                    "maxclass": "outlet",
                                    "numinlets": 1,
                                    "numoutlets": 0,
                                    "patching_rect": [ 127.34375, 636.71875, 30.0, 30.0 ]
                                }
                            },
                            {
                                "box": {
                                    "comment": "",
                                    "id": "obj-8",
                                    "index": 3,
                                    "maxclass": "outlet",
                                    "numinlets": 1,
                                    "numoutlets": 0,
                                    "patching_rect": [ 317.96875, 500.0, 30.0, 30.0 ]
                                }
                            },
                            {
                                "box": {
                                    "comment": "",
                                    "id": "obj-7",
                                    "index": 3,
                                    "maxclass": "inlet",
                                    "numinlets": 0,
                                    "numoutlets": 1,
                                    "outlettype": [ "" ],
                                    "patching_rect": [ 232.8125, 321.09375, 30.0, 30.0 ]
                                }
                            },
                            {
                                "box": {
                                    "comment": "",
                                    "id": "obj-6",
                                    "index": 2,
                                    "maxclass": "inlet",
                                    "numinlets": 0,
                                    "numoutlets": 1,
                                    "outlettype": [ "" ],
                                    "patching_rect": [ 169.53125, 321.09375, 30.0, 30.0 ]
                                }
                            },
                            {
                                "box": {
                                    "comment": "",
                                    "id": "obj-5",
                                    "index": 1,
                                    "maxclass": "outlet",
                                    "numinlets": 1,
                                    "numoutlets": 0,
                                    "patching_rect": [ 110.15625, 319.53125, 30.0, 30.0 ]
                                }
                            },
                            {
                                "box": {
                                    "comment": "",
                                    "id": "obj-4",
                                    "index": 1,
                                    "maxclass": "inlet",
                                    "numinlets": 0,
                                    "numoutlets": 1,
                                    "outlettype": [ "int" ],
                                    "patching_rect": [ 85.9375, 163.28125, 30.0, 30.0 ]
                                }
                            },
                            {
                                "box": {
                                    "id": "obj-78",
                                    "maxclass": "message",
                                    "numinlets": 2,
                                    "numoutlets": 1,
                                    "outlettype": [ "" ],
                                    "patching_rect": [ 127.34375, 591.40625, 29.5, 22.0 ],
                                    "text": "1"
                                }
                            },
                            {
                                "box": {
                                    "id": "obj-35",
                                    "maxclass": "newobj",
                                    "numinlets": 1,
                                    "numoutlets": 1,
                                    "outlettype": [ "signal" ],
                                    "patching_rect": [ 232.8125, 362.5, 31.0, 22.0 ],
                                    "text": "sig~"
                                }
                            },
                            {
                                "box": {
                                    "id": "obj-34",
                                    "maxclass": "newobj",
                                    "numinlets": 1,
                                    "numoutlets": 1,
                                    "outlettype": [ "signal" ],
                                    "patching_rect": [ 169.53125, 362.5, 31.0, 22.0 ],
                                    "text": "sig~"
                                }
                            },
                            {
                                "box": {
                                    "id": "obj-33",
                                    "maxclass": "newobj",
                                    "numinlets": 1,
                                    "numoutlets": 1,
                                    "outlettype": [ "signal" ],
                                    "patching_rect": [ 85.9375, 359.375, 31.0, 22.0 ],
                                    "text": "sig~"
                                }
                            },
                            {
                                "box": {
                                    "id": "obj-32",
                                    "maxclass": "newobj",
                                    "numinlets": 2,
                                    "numoutlets": 2,
                                    "outlettype": [ "bang", "" ],
                                    "patching_rect": [ 154.6875, 553.90625, 34.0, 22.0 ],
                                    "text": "sel 1"
                                }
                            },
                            {
                                "box": {
                                    "format": 6,
                                    "id": "obj-25",
                                    "maxclass": "flonum",
                                    "numinlets": 1,
                                    "numoutlets": 2,
                                    "outlettype": [ "", "bang" ],
                                    "parameter_enable": 0,
                                    "patching_rect": [ 189.0625, 489.0625, 50.0, 22.0 ]
                                }
                            },
                            {
                                "box": {
                                    "id": "obj-16",
                                    "maxclass": "newobj",
                                    "numinlets": 2,
                                    "numoutlets": 1,
                                    "outlettype": [ "float" ],
                                    "patching_rect": [ 154.6875, 460.15625, 88.0, 22.0 ],
                                    "text": "snapshot~ 120"
                                }
                            },
                            {
                                "box": {
                                    "format": 6,
                                    "id": "obj-3",
                                    "maxclass": "flonum",
                                    "numinlets": 1,
                                    "numoutlets": 2,
                                    "outlettype": [ "", "bang" ],
                                    "parameter_enable": 0,
                                    "patching_rect": [ 85.9375, 284.375, 50.0, 22.0 ]
                                }
                            },
                            {
                                "box": {
                                    "id": "obj-24",
                                    "maxclass": "newobj",
                                    "numinlets": 6,
                                    "numoutlets": 1,
                                    "outlettype": [ "" ],
                                    "patching_rect": [ 85.9375, 252.34375, 103.0, 22.0 ],
                                    "text": "scale 0 1023 0. 1."
                                }
                            },
                            {
                                "box": {
                                    "id": "obj-26",
                                    "maxclass": "number",
                                    "numinlets": 1,
                                    "numoutlets": 2,
                                    "outlettype": [ "", "bang" ],
                                    "parameter_enable": 0,
                                    "patching_rect": [ 85.9375, 213.28125, 50.0, 22.0 ]
                                }
                            },
                            {
                                "box": {
                                    "id": "obj-23",
                                    "maxclass": "newobj",
                                    "numinlets": 3,
                                    "numoutlets": 1,
                                    "outlettype": [ "signal" ],
                                    "patching_rect": [ 154.6875, 412.5, 49.0, 22.0 ],
                                    "text": "thresh~"
                                }
                            },
                            {
                                "box": {
                                    "id": "obj-17",
                                    "maxclass": "newobj",
                                    "numinlets": 1,
                                    "numoutlets": 3,
                                    "outlettype": [ "", "int", "int" ],
                                    "patching_rect": [ 154.6875, 511.71875, 48.0, 22.0 ],
                                    "text": "change"
                                }
                            }
                        ],
                        "lines": [
                            {
                                "patchline": {
                                    "destination": [ "obj-17", 0 ],
                                    "order": 2,
                                    "source": [ "obj-16", 0 ]
                                }
                            },
                            {
                                "patchline": {
                                    "destination": [ "obj-25", 0 ],
                                    "order": 1,
                                    "source": [ "obj-16", 0 ]
                                }
                            },
                            {
                                "patchline": {
                                    "destination": [ "obj-8", 0 ],
                                    "order": 0,
                                    "source": [ "obj-16", 0 ]
                                }
                            },
                            {
                                "patchline": {
                                    "destination": [ "obj-32", 0 ],
                                    "source": [ "obj-17", 0 ]
                                }
                            },
                            {
                                "patchline": {
                                    "destination": [ "obj-16", 0 ],
                                    "source": [ "obj-23", 0 ]
                                }
                            },
                            {
                                "patchline": {
                                    "destination": [ "obj-3", 0 ],
                                    "source": [ "obj-24", 0 ]
                                }
                            },
                            {
                                "patchline": {
                                    "destination": [ "obj-24", 0 ],
                                    "source": [ "obj-26", 0 ]
                                }
                            },
                            {
                                "patchline": {
                                    "destination": [ "obj-33", 0 ],
                                    "order": 1,
                                    "source": [ "obj-3", 0 ]
                                }
                            },
                            {
                                "patchline": {
                                    "destination": [ "obj-5", 0 ],
                                    "order": 0,
                                    "source": [ "obj-3", 0 ]
                                }
                            },
                            {
                                "patchline": {
                                    "destination": [ "obj-78", 0 ],
                                    "source": [ "obj-32", 0 ]
                                }
                            },
                            {
                                "patchline": {
                                    "destination": [ "obj-23", 0 ],
                                    "source": [ "obj-33", 0 ]
                                }
                            },
                            {
                                "patchline": {
                                    "destination": [ "obj-23", 1 ],
                                    "source": [ "obj-34", 0 ]
                                }
                            },
                            {
                                "patchline": {
                                    "destination": [ "obj-23", 2 ],
                                    "source": [ "obj-35", 0 ]
                                }
                            },
                            {
                                "patchline": {
                                    "destination": [ "obj-26", 0 ],
                                    "source": [ "obj-4", 0 ]
                                }
                            },
                            {
                                "patchline": {
                                    "destination": [ "obj-34", 0 ],
                                    "source": [ "obj-6", 0 ]
                                }
                            },
                            {
                                "patchline": {
                                    "destination": [ "obj-35", 0 ],
                                    "source": [ "obj-7", 0 ]
                                }
                            },
                            {
                                "patchline": {
                                    "destination": [ "obj-9", 0 ],
                                    "source": [ "obj-78", 0 ]
                                }
                            }
                        ]
                    },
                    "patching_rect": [ 1104.1667193174362, 402.7777969837189, 49.0, 22.0 ],
                    "text": "patcher"
                }
            },
            {
                "box": {
                    "id": "obj-19",
                    "maxclass": "comment",
                    "numinlets": 1,
                    "numoutlets": 0,
                    "patching_rect": [ 775.0000369548798, 220.83334386348724, 150.0, 20.0 ],
                    "text": "HEEL, range 0. - 1."
                }
            },
            {
                "box": {
                    "id": "obj-18",
                    "maxclass": "comment",
                    "numinlets": 1,
                    "numoutlets": 0,
                    "patching_rect": [ 454.16668832302094, 230.55556654930115, 150.0, 20.0 ],
                    "text": "TOE, range 0 - 0.5"
                }
            },
            {
                "box": {
                    "id": "obj-50",
                    "maxclass": "message",
                    "numinlets": 2,
                    "numoutlets": 1,
                    "outlettype": [ "" ],
                    "patching_rect": [ 944.4444894790649, 230.55556654930115, 32.0, 22.0 ],
                    "text": "0.22"
                }
            },
            {
                "box": {
                    "id": "obj-51",
                    "maxclass": "message",
                    "numinlets": 2,
                    "numoutlets": 1,
                    "outlettype": [ "" ],
                    "patching_rect": [ 702.7778112888336, 230.55556654930115, 29.5, 22.0 ],
                    "text": "0.1"
                }
            },
            {
                "box": {
                    "id": "obj-52",
                    "maxclass": "newobj",
                    "numinlets": 1,
                    "numoutlets": 1,
                    "outlettype": [ "bang" ],
                    "patching_rect": [ 944.4444894790649, 191.66667580604553, 58.0, 22.0 ],
                    "text": "loadbang"
                }
            },
            {
                "box": {
                    "id": "obj-53",
                    "maxclass": "newobj",
                    "numinlets": 1,
                    "numoutlets": 1,
                    "outlettype": [ "bang" ],
                    "patching_rect": [ 701.3889223337173, 191.66667580604553, 58.0, 22.0 ],
                    "text": "loadbang"
                }
            },
            {
                "box": {
                    "id": "obj-55",
                    "maxclass": "multislider",
                    "numinlets": 1,
                    "numoutlets": 2,
                    "outlettype": [ "", "" ],
                    "parameter_enable": 0,
                    "patching_rect": [ 727.7778124809265, 426.3889092206955, 246.0, 107.0 ],
                    "presentation": 1,
                    "presentation_rect": [ 680.7407184243202, 461.4814663529396, 246.0, 107.0 ],
                    "setminmax": [ 0.0, 0.5 ],
                    "setstyle": 5
                }
            },
            {
                "box": {
                    "id": "obj-62",
                    "maxclass": "live.slider",
                    "numinlets": 1,
                    "numoutlets": 2,
                    "outlettype": [ "", "float" ],
                    "parameter_enable": 1,
                    "patching_rect": [ 952.7778232097626, 272.2222352027893, 39.0, 142.0 ],
                    "presentation": 1,
                    "presentation_rect": [ 906.6666369438171, 306.6666566133499, 39.0, 142.0 ],
                    "saved_attribute_attributes": {
                        "valueof": {
                            "parameter_longname": "live.slider[2]",
                            "parameter_mmax": 0.5,
                            "parameter_modmode": 3,
                            "parameter_shortname": "trigger",
                            "parameter_type": 0,
                            "parameter_unitstyle": 1
                        }
                    },
                    "valuepopup": 1,
                    "varname": "live.slider[2]"
                }
            },
            {
                "box": {
                    "id": "obj-63",
                    "maxclass": "live.slider",
                    "numinlets": 1,
                    "numoutlets": 2,
                    "outlettype": [ "", "float" ],
                    "parameter_enable": 1,
                    "patching_rect": [ 705.5555891990662, 270.83334624767303, 39.0, 142.0 ],
                    "presentation": 1,
                    "presentation_rect": [ 659.2592376470566, 306.6666566133499, 39.0, 142.0 ],
                    "saved_attribute_attributes": {
                        "valueof": {
                            "parameter_longname": "live.slider[3]",
                            "parameter_mmax": 0.5,
                            "parameter_modmode": 3,
                            "parameter_shortname": "reset",
                            "parameter_type": 0,
                            "parameter_unitstyle": 1
                        }
                    },
                    "valuepopup": 1,
                    "varname": "live.slider[3]"
                }
            },
            {
                "box": {
                    "id": "obj-65",
                    "maxclass": "multislider",
                    "numinlets": 1,
                    "numoutlets": 2,
                    "outlettype": [ "", "" ],
                    "parameter_enable": 0,
                    "patching_rect": [ 727.7778124809265, 287.5000137090683, 246.0, 107.0 ],
                    "presentation": 1,
                    "presentation_rect": [ 680.7407184243202, 324.4444338083267, 246.0, 107.0 ],
                    "setminmax": [ 0.0, 1.0 ],
                    "setstyle": 5
                }
            },
            {
                "box": {
                    "id": "obj-70",
                    "maxclass": "comment",
                    "numinlets": 1,
                    "numoutlets": 0,
                    "patching_rect": [ 775.0000369548798, 243.0555671453476, 150.0, 20.0 ],
                    "text": "Threshold value!"
                }
            },
            {
                "box": {
                    "id": "obj-47",
                    "maxclass": "newobj",
                    "numinlets": 1,
                    "numoutlets": 2,
                    "outlettype": [ "int", "int" ],
                    "patching_rect": [ 275.00001311302185, 150.00000715255737, 67.0, 22.0 ],
                    "text": "unpack 0 0"
                }
            },
            {
                "box": {
                    "id": "obj-40",
                    "linecount": 2,
                    "maxclass": "comment",
                    "numinlets": 1,
                    "numoutlets": 0,
                    "patching_rect": [ 427.77779817581177, 47.22222447395325, 319.0, 33.0 ],
                    "text": "Adapting max patch:\nSub patches!"
                }
            },
            {
                "box": {
                    "id": "obj-42",
                    "maxclass": "message",
                    "numinlets": 2,
                    "numoutlets": 1,
                    "outlettype": [ "" ],
                    "patching_rect": [ 611.1111402511597, 229.16667759418488, 32.0, 22.0 ],
                    "text": "0.22"
                }
            },
            {
                "box": {
                    "id": "obj-31",
                    "maxclass": "message",
                    "numinlets": 2,
                    "numoutlets": 1,
                    "outlettype": [ "" ],
                    "patching_rect": [ 368.0555731058121, 229.16667759418488, 29.5, 22.0 ],
                    "text": "0.1"
                }
            },
            {
                "box": {
                    "id": "obj-22",
                    "maxclass": "newobj",
                    "numinlets": 1,
                    "numoutlets": 1,
                    "outlettype": [ "bang" ],
                    "patching_rect": [ 611.1111402511597, 190.27778685092926, 58.0, 22.0 ],
                    "text": "loadbang"
                }
            },
            {
                "box": {
                    "id": "obj-20",
                    "maxclass": "newobj",
                    "numinlets": 1,
                    "numoutlets": 1,
                    "outlettype": [ "bang" ],
                    "patching_rect": [ 368.0555731058121, 190.27778685092926, 58.0, 22.0 ],
                    "text": "loadbang"
                }
            },
            {
                "box": {
                    "id": "obj-38",
                    "maxclass": "newobj",
                    "numinlets": 3,
                    "numoutlets": 3,
                    "outlettype": [ "bang", "bang", "" ],
                    "patching_rect": [ 98.61111581325531, 518.0555802583694, 44.0, 22.0 ],
                    "text": "sel 1 0"
                }
            },
            {
                "box": {
                    "id": "obj-37",
                    "maxclass": "toggle",
                    "numinlets": 1,
                    "numoutlets": 1,
                    "outlettype": [ "int" ],
                    "parameter_enable": 0,
                    "patching_rect": [ 72.22222566604614, 486.1111342906952, 24.0, 24.0 ],
                    "presentation": 1,
                    "presentation_rect": [ 239.25925141572952, 425.925911962986, 47.727272272109985, 47.727272272109985 ]
                }
            },
            {
                "box": {
                    "id": "obj-36",
                    "maxclass": "multislider",
                    "numinlets": 1,
                    "numoutlets": 2,
                    "outlettype": [ "", "" ],
                    "parameter_enable": 0,
                    "patching_rect": [ 398.61113011837006, 426.3889092206955, 246.0, 107.0 ],
                    "presentation": 1,
                    "presentation_rect": [ 346.66665530204773, 461.4814663529396, 246.0, 107.0 ],
                    "setminmax": [ 0.0, 0.5 ],
                    "setstyle": 5
                }
            },
            {
                "box": {
                    "id": "obj-15",
                    "maxclass": "live.slider",
                    "numinlets": 1,
                    "numoutlets": 2,
                    "outlettype": [ "", "float" ],
                    "parameter_enable": 1,
                    "patching_rect": [ 619.4444739818573, 269.44445729255676, 39.0, 142.0 ],
                    "presentation": 1,
                    "presentation_rect": [ 572.5925738215446, 307.4073973298073, 39.0, 142.0 ],
                    "saved_attribute_attributes": {
                        "valueof": {
                            "parameter_longname": "live.slider[1]",
                            "parameter_mmax": 0.5,
                            "parameter_modmode": 3,
                            "parameter_shortname": "trigger",
                            "parameter_type": 0,
                            "parameter_unitstyle": 1
                        }
                    },
                    "valuepopup": 1,
                    "varname": "live.slider[1]"
                }
            },
            {
                "box": {
                    "id": "obj-14",
                    "maxclass": "live.slider",
                    "numinlets": 1,
                    "numoutlets": 2,
                    "outlettype": [ "", "float" ],
                    "parameter_enable": 1,
                    "patching_rect": [ 372.2222399711609, 269.44445729255676, 39.0, 142.0 ],
                    "presentation": 1,
                    "presentation_rect": [ 325.1851745247841, 307.4073973298073, 39.0, 142.0 ],
                    "saved_attribute_attributes": {
                        "valueof": {
                            "parameter_longname": "live.slider",
                            "parameter_mmax": 0.5,
                            "parameter_modmode": 3,
                            "parameter_shortname": "reset",
                            "parameter_type": 0,
                            "parameter_unitstyle": 1
                        }
                    },
                    "valuepopup": 1,
                    "varname": "live.slider"
                }
            },
            {
                "box": {
                    "id": "obj-1",
                    "maxclass": "multislider",
                    "numinlets": 1,
                    "numoutlets": 2,
                    "outlettype": [ "", "" ],
                    "parameter_enable": 0,
                    "patching_rect": [ 393.05557429790497, 286.111124753952, 246.0, 107.0 ],
                    "presentation": 1,
                    "presentation_rect": [ 346.66665530204773, 324.4444338083267, 246.0, 107.0 ],
                    "setminmax": [ 0.0, 0.5 ],
                    "setstyle": 5
                }
            },
            {
                "box": {
                    "fontsize": 12.0,
                    "id": "obj-5",
                    "lastchannelcount": 0,
                    "maxclass": "live.gain~",
                    "numinlets": 2,
                    "numoutlets": 5,
                    "orientation": 1,
                    "outlettype": [ "signal", "signal", "", "float", "list" ],
                    "parameter_enable": 1,
                    "patching_rect": [ 656.9444757699966, 669.4444763660431, 129.0, 39.0 ],
                    "saved_attribute_attributes": {
                        "valueof": {
                            "parameter_initial": [ 6.0 ],
                            "parameter_initial_enable": 1,
                            "parameter_longname": "live.gain~",
                            "parameter_mmax": 6.0,
                            "parameter_mmin": -70.0,
                            "parameter_modmode": 0,
                            "parameter_shortname": "live.gain~",
                            "parameter_type": 0,
                            "parameter_unitstyle": 4
                        }
                    },
                    "showname": 0,
                    "varname": "live.gain~"
                }
            },
            {
                "box": {
                    "id": "obj-7",
                    "local": 1,
                    "maxclass": "ezdac~",
                    "numinlets": 2,
                    "numoutlets": 0,
                    "patching_rect": [ 661.1111426353455, 740.277813076973, 44.0, 44.0 ],
                    "prototypename": "helpfile"
                }
            },
            {
                "box": {
                    "id": "obj-28",
                    "maxclass": "newobj",
                    "numinlets": 2,
                    "numoutlets": 3,
                    "outlettype": [ "signal", "signal", "bang" ],
                    "patching_rect": [ 701.3889223337173, 615.2778071165085, 57.0, 22.0 ],
                    "text": "sfplay~ 2"
                }
            },
            {
                "box": {
                    "id": "obj-21",
                    "maxclass": "comment",
                    "numinlets": 1,
                    "numoutlets": 0,
                    "patching_rect": [ 459.722244143486, 252.7777898311615, 150.0, 20.0 ],
                    "text": "Threshold value!"
                }
            },
            {
                "box": {
                    "id": "obj-44",
                    "maxclass": "newobj",
                    "numinlets": 3,
                    "numoutlets": 3,
                    "outlettype": [ "", "", "float" ],
                    "patcher": {
                        "fileversion": 1,
                        "appversion": {
                            "major": 9,
                            "minor": 1,
                            "revision": 2,
                            "architecture": "x64",
                            "modernui": 1
                        },
                        "classnamespace": "box",
                        "rect": [ 127.0, 95.0, 612.0, 766.0 ],
                        "boxes": [
                            {
                                "box": {
                                    "comment": "",
                                    "id": "obj-9",
                                    "index": 2,
                                    "maxclass": "outlet",
                                    "numinlets": 1,
                                    "numoutlets": 0,
                                    "patching_rect": [ 127.34375, 636.71875, 30.0, 30.0 ]
                                }
                            },
                            {
                                "box": {
                                    "comment": "",
                                    "id": "obj-8",
                                    "index": 3,
                                    "maxclass": "outlet",
                                    "numinlets": 1,
                                    "numoutlets": 0,
                                    "patching_rect": [ 317.96875, 500.0, 30.0, 30.0 ]
                                }
                            },
                            {
                                "box": {
                                    "comment": "",
                                    "id": "obj-7",
                                    "index": 3,
                                    "maxclass": "inlet",
                                    "numinlets": 0,
                                    "numoutlets": 1,
                                    "outlettype": [ "" ],
                                    "patching_rect": [ 232.8125, 321.09375, 30.0, 30.0 ]
                                }
                            },
                            {
                                "box": {
                                    "comment": "",
                                    "id": "obj-6",
                                    "index": 2,
                                    "maxclass": "inlet",
                                    "numinlets": 0,
                                    "numoutlets": 1,
                                    "outlettype": [ "" ],
                                    "patching_rect": [ 169.53125, 321.09375, 30.0, 30.0 ]
                                }
                            },
                            {
                                "box": {
                                    "comment": "",
                                    "id": "obj-5",
                                    "index": 1,
                                    "maxclass": "outlet",
                                    "numinlets": 1,
                                    "numoutlets": 0,
                                    "patching_rect": [ 110.15625, 319.53125, 30.0, 30.0 ]
                                }
                            },
                            {
                                "box": {
                                    "comment": "",
                                    "id": "obj-4",
                                    "index": 1,
                                    "maxclass": "inlet",
                                    "numinlets": 0,
                                    "numoutlets": 1,
                                    "outlettype": [ "int" ],
                                    "patching_rect": [ 85.9375, 163.28125, 30.0, 30.0 ]
                                }
                            },
                            {
                                "box": {
                                    "id": "obj-78",
                                    "maxclass": "message",
                                    "numinlets": 2,
                                    "numoutlets": 1,
                                    "outlettype": [ "" ],
                                    "patching_rect": [ 127.34375, 591.40625, 29.5, 22.0 ],
                                    "text": "1"
                                }
                            },
                            {
                                "box": {
                                    "id": "obj-35",
                                    "maxclass": "newobj",
                                    "numinlets": 1,
                                    "numoutlets": 1,
                                    "outlettype": [ "signal" ],
                                    "patching_rect": [ 232.8125, 362.5, 31.0, 22.0 ],
                                    "text": "sig~"
                                }
                            },
                            {
                                "box": {
                                    "id": "obj-34",
                                    "maxclass": "newobj",
                                    "numinlets": 1,
                                    "numoutlets": 1,
                                    "outlettype": [ "signal" ],
                                    "patching_rect": [ 169.53125, 362.5, 31.0, 22.0 ],
                                    "text": "sig~"
                                }
                            },
                            {
                                "box": {
                                    "id": "obj-33",
                                    "maxclass": "newobj",
                                    "numinlets": 1,
                                    "numoutlets": 1,
                                    "outlettype": [ "signal" ],
                                    "patching_rect": [ 85.9375, 359.375, 31.0, 22.0 ],
                                    "text": "sig~"
                                }
                            },
                            {
                                "box": {
                                    "id": "obj-32",
                                    "maxclass": "newobj",
                                    "numinlets": 2,
                                    "numoutlets": 2,
                                    "outlettype": [ "bang", "" ],
                                    "patching_rect": [ 154.6875, 553.90625, 34.0, 22.0 ],
                                    "text": "sel 1"
                                }
                            },
                            {
                                "box": {
                                    "format": 6,
                                    "id": "obj-25",
                                    "maxclass": "flonum",
                                    "numinlets": 1,
                                    "numoutlets": 2,
                                    "outlettype": [ "", "bang" ],
                                    "parameter_enable": 0,
                                    "patching_rect": [ 189.0625, 489.0625, 50.0, 22.0 ]
                                }
                            },
                            {
                                "box": {
                                    "id": "obj-16",
                                    "maxclass": "newobj",
                                    "numinlets": 2,
                                    "numoutlets": 1,
                                    "outlettype": [ "float" ],
                                    "patching_rect": [ 154.6875, 460.15625, 88.0, 22.0 ],
                                    "text": "snapshot~ 120"
                                }
                            },
                            {
                                "box": {
                                    "format": 6,
                                    "id": "obj-3",
                                    "maxclass": "flonum",
                                    "numinlets": 1,
                                    "numoutlets": 2,
                                    "outlettype": [ "", "bang" ],
                                    "parameter_enable": 0,
                                    "patching_rect": [ 85.9375, 284.375, 50.0, 22.0 ]
                                }
                            },
                            {
                                "box": {
                                    "id": "obj-24",
                                    "maxclass": "newobj",
                                    "numinlets": 6,
                                    "numoutlets": 1,
                                    "outlettype": [ "" ],
                                    "patching_rect": [ 85.9375, 252.34375, 103.0, 22.0 ],
                                    "text": "scale 0 1023 0. 1."
                                }
                            },
                            {
                                "box": {
                                    "id": "obj-26",
                                    "maxclass": "number",
                                    "numinlets": 1,
                                    "numoutlets": 2,
                                    "outlettype": [ "", "bang" ],
                                    "parameter_enable": 0,
                                    "patching_rect": [ 85.9375, 213.28125, 50.0, 22.0 ]
                                }
                            },
                            {
                                "box": {
                                    "id": "obj-23",
                                    "maxclass": "newobj",
                                    "numinlets": 3,
                                    "numoutlets": 1,
                                    "outlettype": [ "signal" ],
                                    "patching_rect": [ 154.6875, 412.5, 49.0, 22.0 ],
                                    "text": "thresh~"
                                }
                            },
                            {
                                "box": {
                                    "id": "obj-17",
                                    "maxclass": "newobj",
                                    "numinlets": 1,
                                    "numoutlets": 3,
                                    "outlettype": [ "", "int", "int" ],
                                    "patching_rect": [ 154.6875, 511.71875, 48.0, 22.0 ],
                                    "text": "change"
                                }
                            }
                        ],
                        "lines": [
                            {
                                "patchline": {
                                    "destination": [ "obj-17", 0 ],
                                    "order": 2,
                                    "source": [ "obj-16", 0 ]
                                }
                            },
                            {
                                "patchline": {
                                    "destination": [ "obj-25", 0 ],
                                    "order": 1,
                                    "source": [ "obj-16", 0 ]
                                }
                            },
                            {
                                "patchline": {
                                    "destination": [ "obj-8", 0 ],
                                    "order": 0,
                                    "source": [ "obj-16", 0 ]
                                }
                            },
                            {
                                "patchline": {
                                    "destination": [ "obj-32", 0 ],
                                    "source": [ "obj-17", 0 ]
                                }
                            },
                            {
                                "patchline": {
                                    "destination": [ "obj-16", 0 ],
                                    "source": [ "obj-23", 0 ]
                                }
                            },
                            {
                                "patchline": {
                                    "destination": [ "obj-3", 0 ],
                                    "source": [ "obj-24", 0 ]
                                }
                            },
                            {
                                "patchline": {
                                    "destination": [ "obj-24", 0 ],
                                    "source": [ "obj-26", 0 ]
                                }
                            },
                            {
                                "patchline": {
                                    "destination": [ "obj-33", 0 ],
                                    "order": 1,
                                    "source": [ "obj-3", 0 ]
                                }
                            },
                            {
                                "patchline": {
                                    "destination": [ "obj-5", 0 ],
                                    "order": 0,
                                    "source": [ "obj-3", 0 ]
                                }
                            },
                            {
                                "patchline": {
                                    "destination": [ "obj-78", 0 ],
                                    "source": [ "obj-32", 0 ]
                                }
                            },
                            {
                                "patchline": {
                                    "destination": [ "obj-23", 0 ],
                                    "source": [ "obj-33", 0 ]
                                }
                            },
                            {
                                "patchline": {
                                    "destination": [ "obj-23", 1 ],
                                    "source": [ "obj-34", 0 ]
                                }
                            },
                            {
                                "patchline": {
                                    "destination": [ "obj-23", 2 ],
                                    "source": [ "obj-35", 0 ]
                                }
                            },
                            {
                                "patchline": {
                                    "destination": [ "obj-26", 0 ],
                                    "source": [ "obj-4", 0 ]
                                }
                            },
                            {
                                "patchline": {
                                    "destination": [ "obj-34", 0 ],
                                    "source": [ "obj-6", 0 ]
                                }
                            },
                            {
                                "patchline": {
                                    "destination": [ "obj-35", 0 ],
                                    "source": [ "obj-7", 0 ]
                                }
                            },
                            {
                                "patchline": {
                                    "destination": [ "obj-9", 0 ],
                                    "source": [ "obj-78", 0 ]
                                }
                            }
                        ]
                    },
                    "patching_rect": [ 261.11112356185913, 402.7777969837189, 49.0, 22.0 ],
                    "text": "patcher"
                }
            }
        ],
        "lines": [
            {
                "patchline": {
                    "destination": [ "obj-44", 1 ],
                    "source": [ "obj-14", 0 ]
                }
            },
            {
                "patchline": {
                    "destination": [ "obj-44", 2 ],
                    "source": [ "obj-15", 0 ]
                }
            },
            {
                "patchline": {
                    "destination": [ "obj-31", 0 ],
                    "source": [ "obj-20", 0 ]
                }
            },
            {
                "patchline": {
                    "destination": [ "obj-42", 0 ],
                    "source": [ "obj-22", 0 ]
                }
            },
            {
                "patchline": {
                    "destination": [ "obj-5", 1 ],
                    "source": [ "obj-28", 1 ]
                }
            },
            {
                "patchline": {
                    "destination": [ "obj-5", 0 ],
                    "source": [ "obj-28", 0 ]
                }
            },
            {
                "patchline": {
                    "destination": [ "obj-14", 0 ],
                    "source": [ "obj-31", 0 ]
                }
            },
            {
                "patchline": {
                    "destination": [ "obj-38", 0 ],
                    "order": 1,
                    "source": [ "obj-37", 0 ]
                }
            },
            {
                "patchline": {
                    "destination": [ "obj-7", 0 ],
                    "order": 0,
                    "source": [ "obj-37", 0 ]
                }
            },
            {
                "patchline": {
                    "destination": [ "obj-71", 1 ],
                    "source": [ "obj-38", 1 ]
                }
            },
            {
                "patchline": {
                    "destination": [ "obj-71", 0 ],
                    "source": [ "obj-38", 0 ]
                }
            },
            {
                "patchline": {
                    "destination": [ "obj-15", 0 ],
                    "source": [ "obj-42", 0 ]
                }
            },
            {
                "patchline": {
                    "destination": [ "obj-1", 0 ],
                    "source": [ "obj-44", 0 ]
                }
            },
            {
                "patchline": {
                    "destination": [ "obj-28", 0 ],
                    "source": [ "obj-44", 1 ]
                }
            },
            {
                "patchline": {
                    "destination": [ "obj-36", 0 ],
                    "source": [ "obj-44", 2 ]
                }
            },
            {
                "patchline": {
                    "destination": [ "obj-28", 0 ],
                    "source": [ "obj-45", 1 ]
                }
            },
            {
                "patchline": {
                    "destination": [ "obj-55", 0 ],
                    "source": [ "obj-45", 2 ]
                }
            },
            {
                "patchline": {
                    "destination": [ "obj-65", 0 ],
                    "source": [ "obj-45", 0 ]
                }
            },
            {
                "patchline": {
                    "destination": [ "obj-44", 0 ],
                    "source": [ "obj-47", 0 ]
                }
            },
            {
                "patchline": {
                    "destination": [ "obj-45", 0 ],
                    "source": [ "obj-47", 1 ]
                }
            },
            {
                "patchline": {
                    "destination": [ "obj-7", 1 ],
                    "source": [ "obj-5", 1 ]
                }
            },
            {
                "patchline": {
                    "destination": [ "obj-7", 0 ],
                    "source": [ "obj-5", 0 ]
                }
            },
            {
                "patchline": {
                    "destination": [ "obj-62", 0 ],
                    "source": [ "obj-50", 0 ]
                }
            },
            {
                "patchline": {
                    "destination": [ "obj-63", 0 ],
                    "source": [ "obj-51", 0 ]
                }
            },
            {
                "patchline": {
                    "destination": [ "obj-50", 0 ],
                    "source": [ "obj-52", 0 ]
                }
            },
            {
                "patchline": {
                    "destination": [ "obj-51", 0 ],
                    "source": [ "obj-53", 0 ]
                }
            },
            {
                "patchline": {
                    "destination": [ "obj-45", 2 ],
                    "source": [ "obj-62", 0 ]
                }
            },
            {
                "patchline": {
                    "destination": [ "obj-45", 1 ],
                    "source": [ "obj-63", 0 ]
                }
            },
            {
                "patchline": {
                    "destination": [ "obj-47", 0 ],
                    "source": [ "obj-71", 0 ]
                }
            }
        ],
        "parameters": {
            "obj-14": [ "live.slider", "reset", 0 ],
            "obj-15": [ "live.slider[1]", "trigger", 0 ],
            "obj-5": [ "live.gain~", "live.gain~", 0 ],
            "obj-62": [ "live.slider[2]", "trigger", 0 ],
            "obj-63": [ "live.slider[3]", "reset", 0 ],
            "parameterbanks": {
                "0": {
                    "index": 0,
                    "name": "",
                    "parameters": [ "-", "-", "-", "-", "-", "-", "-", "-" ],
                    "buttons": [ "-", "-", "-", "-", "-", "-", "-", "-" ]
                }
            },
            "inherited_shortname": 1
        },
        "autosave": 0
    }
}