{
    "patcher": {
        "fileversion": 1,
        "appversion": {
            "major": 9,
            "minor": 1,
            "revision": 4,
            "architecture": "x64",
            "modernui": 1
        },
        "classnamespace": "box",
        "rect": [ 34.0, 95.0, 1402.0, 762.0 ],
        "boxes": [
            {
                "box": {
                    "id": "obj-10",
                    "maxclass": "newobj",
                    "numinlets": 2,
                    "numoutlets": 1,
                    "outlettype": [ "" ],
                    "patching_rect": [ 904.1666451096535, 652.4999844431877, 80.0, 22.0 ],
                    "text": "speedlim 350"
                }
            },
            {
                "box": {
                    "id": "obj-12",
                    "maxclass": "newobj",
                    "numinlets": 2,
                    "numoutlets": 1,
                    "outlettype": [ "" ],
                    "patching_rect": [ 904.1666451096535, 679.9999837875366, 80.0, 22.0 ],
                    "text": "speedlim 350"
                }
            },
            {
                "box": {
                    "id": "obj-8",
                    "maxclass": "newobj",
                    "numinlets": 2,
                    "numoutlets": 1,
                    "outlettype": [ "" ],
                    "patching_rect": [ 864.0, 720.0, 80.0, 22.0 ],
                    "text": "speedlim 350"
                }
            },
            {
                "box": {
                    "id": "obj-9",
                    "maxclass": "newobj",
                    "numinlets": 2,
                    "numoutlets": 1,
                    "outlettype": [ "" ],
                    "patching_rect": [ 864.0, 748.0, 80.0, 22.0 ],
                    "text": "speedlim 350"
                }
            },
            {
                "box": {
                    "id": "obj-6",
                    "maxclass": "newobj",
                    "numinlets": 2,
                    "numoutlets": 1,
                    "outlettype": [ "" ],
                    "patching_rect": [ 819.9999804496765, 652.4999844431877, 80.0, 22.0 ],
                    "text": "speedlim 350"
                }
            },
            {
                "box": {
                    "id": "obj-7",
                    "maxclass": "newobj",
                    "numinlets": 2,
                    "numoutlets": 1,
                    "outlettype": [ "" ],
                    "patching_rect": [ 819.9999804496765, 679.9999837875366, 80.0, 22.0 ],
                    "text": "speedlim 350"
                }
            },
            {
                "box": {
                    "id": "obj-5",
                    "maxclass": "newobj",
                    "numinlets": 2,
                    "numoutlets": 1,
                    "outlettype": [ "" ],
                    "patching_rect": [ 780.0, 720.0, 80.0, 22.0 ],
                    "text": "speedlim 350"
                }
            },
            {
                "box": {
                    "id": "obj-1",
                    "maxclass": "newobj",
                    "numinlets": 2,
                    "numoutlets": 1,
                    "outlettype": [ "" ],
                    "patching_rect": [ 780.0, 748.0, 80.0, 22.0 ],
                    "text": "speedlim 350"
                }
            },
            {
                "box": {
                    "id": "obj-45",
                    "maxclass": "newobj",
                    "numinlets": 1,
                    "numoutlets": 3,
                    "outlettype": [ "", "int", "int" ],
                    "patching_rect": [ 780.0, 823.0, 61.0, 22.0 ],
                    "text": "change 1."
                }
            },
            {
                "box": {
                    "id": "obj-43",
                    "maxclass": "newobj",
                    "numinlets": 1,
                    "numoutlets": 3,
                    "outlettype": [ "", "int", "int" ],
                    "patching_rect": [ 819.9999804496765, 792.4999811053276, 61.0, 22.0 ],
                    "text": "change 1."
                }
            },
            {
                "box": {
                    "id": "obj-37",
                    "maxclass": "newobj",
                    "numinlets": 1,
                    "numoutlets": 3,
                    "outlettype": [ "", "int", "int" ],
                    "patching_rect": [ 860.0, 823.0, 61.0, 22.0 ],
                    "text": "change 1."
                }
            },
            {
                "box": {
                    "id": "obj-23",
                    "maxclass": "message",
                    "numinlets": 2,
                    "numoutlets": 1,
                    "outlettype": [ "" ],
                    "patching_rect": [ 1914.3791454434395, 1530.7190026044846, 50.0, 22.0 ]
                }
            },
            {
                "box": {
                    "id": "obj-4",
                    "maxclass": "newobj",
                    "numinlets": 1,
                    "numoutlets": 3,
                    "outlettype": [ "", "int", "int" ],
                    "patching_rect": [ 899.1666452288628, 792.4999811053276, 61.0, 22.0 ],
                    "text": "change 1."
                }
            },
            {
                "box": {
                    "id": "obj-3",
                    "maxclass": "comment",
                    "numinlets": 1,
                    "numoutlets": 0,
                    "patching_rect": [ 314.8148399591446, 141.975319981575, 150.0, 20.0 ],
                    "text": "triggers sub patch"
                }
            },
            {
                "box": {
                    "id": "obj-184",
                    "maxclass": "toggle",
                    "numinlets": 1,
                    "numoutlets": 1,
                    "outlettype": [ "int" ],
                    "parameter_enable": 0,
                    "patching_rect": [ 1268.5714852809906, 483.42859303951263, 24.0, 24.0 ]
                }
            },
            {
                "box": {
                    "id": "obj-182",
                    "maxclass": "toggle",
                    "numinlets": 1,
                    "numoutlets": 1,
                    "outlettype": [ "int" ],
                    "parameter_enable": 0,
                    "patching_rect": [ 1100.000049173832, 449.1428772211075, 24.0, 24.0 ]
                }
            },
            {
                "box": {
                    "id": "obj-178",
                    "maxclass": "newobj",
                    "numinlets": 2,
                    "numoutlets": 2,
                    "outlettype": [ "bang", "" ],
                    "patching_rect": [ 1194.8571962714195, 450.4648605585098, 34.0, 22.0 ],
                    "text": "sel 1"
                }
            },
            {
                "box": {
                    "id": "obj-179",
                    "maxclass": "newobj",
                    "numinlets": 2,
                    "numoutlets": 1,
                    "outlettype": [ "int" ],
                    "patching_rect": [ 1194.8571962714195, 421.89343070983887, 29.5, 22.0 ],
                    "text": ">"
                }
            },
            {
                "box": {
                    "id": "obj-180",
                    "maxclass": "message",
                    "numinlets": 2,
                    "numoutlets": 1,
                    "outlettype": [ "" ],
                    "patching_rect": [ 1194.8571962714195, 477.89343321323395, 29.5, 22.0 ],
                    "text": "1."
                }
            },
            {
                "box": {
                    "format": 6,
                    "id": "obj-177",
                    "maxclass": "flonum",
                    "numinlets": 1,
                    "numoutlets": 2,
                    "outlettype": [ "", "bang" ],
                    "parameter_enable": 0,
                    "patching_rect": [ 1158.5000513195992, 352.0000157356262, 50.0, 22.0 ]
                }
            },
            {
                "box": {
                    "id": "obj-172",
                    "maxclass": "newobj",
                    "numinlets": 2,
                    "numoutlets": 2,
                    "outlettype": [ "bang", "" ],
                    "patching_rect": [ 1148.0000513195992, 410.02756655216217, 34.0, 22.0 ],
                    "text": "sel 0"
                }
            },
            {
                "box": {
                    "id": "obj-173",
                    "maxclass": "newobj",
                    "numinlets": 2,
                    "numoutlets": 1,
                    "outlettype": [ "int" ],
                    "patching_rect": [ 1148.0000513195992, 381.4561367034912, 29.5, 22.0 ],
                    "text": "<"
                }
            },
            {
                "box": {
                    "id": "obj-174",
                    "maxclass": "message",
                    "numinlets": 2,
                    "numoutlets": 1,
                    "outlettype": [ "" ],
                    "patching_rect": [ 1148.0000513195992, 437.4561392068863, 29.5, 22.0 ],
                    "text": "0."
                }
            },
            {
                "box": {
                    "format": 6,
                    "id": "obj-175",
                    "maxclass": "flonum",
                    "numinlets": 1,
                    "numoutlets": 2,
                    "outlettype": [ "", "bang" ],
                    "parameter_enable": 0,
                    "patching_rect": [ 1148.0000513195992, 559.1704303622246, 50.0, 22.0 ]
                }
            },
            {
                "box": {
                    "id": "obj-170",
                    "maxclass": "message",
                    "numinlets": 2,
                    "numoutlets": 1,
                    "outlettype": [ "" ],
                    "patching_rect": [ 1137.7143365740776, 229.0322597026825, 29.5, 22.0 ],
                    "text": "1"
                }
            },
            {
                "box": {
                    "format": 6,
                    "id": "obj-168",
                    "maxclass": "flonum",
                    "numinlets": 1,
                    "numoutlets": 2,
                    "outlettype": [ "", "bang" ],
                    "parameter_enable": 0,
                    "patching_rect": [ 1137.7143365740776, 262.2857260107994, 50.0, 22.0 ]
                }
            },
            {
                "box": {
                    "format": 6,
                    "id": "obj-163",
                    "maxclass": "flonum",
                    "numinlets": 1,
                    "numoutlets": 2,
                    "outlettype": [ "", "bang" ],
                    "parameter_enable": 0,
                    "patching_rect": [ 1148.0000513195992, 322.85715728998184, 50.0, 22.0 ]
                }
            },
            {
                "box": {
                    "id": "obj-166",
                    "maxclass": "newobj",
                    "numinlets": 1,
                    "numoutlets": 2,
                    "outlettype": [ "bang", "float" ],
                    "patching_rect": [ 1137.7143365740776, 288.5714414715767, 29.5, 22.0 ],
                    "text": "t b f"
                }
            },
            {
                "box": {
                    "id": "obj-160",
                    "maxclass": "button",
                    "numinlets": 1,
                    "numoutlets": 1,
                    "outlettype": [ "bang" ],
                    "parameter_enable": 0,
                    "patching_rect": [ 1024.5714743733406, 341.7143009901047, 24.0, 24.0 ]
                }
            },
            {
                "box": {
                    "id": "obj-158",
                    "maxclass": "message",
                    "numinlets": 2,
                    "numoutlets": 1,
                    "outlettype": [ "" ],
                    "patching_rect": [ 1060.7857612371445, 381.4561367034912, 50.0, 22.0 ]
                }
            },
            {
                "box": {
                    "format": 6,
                    "id": "obj-156",
                    "maxclass": "flonum",
                    "numinlets": 1,
                    "numoutlets": 2,
                    "outlettype": [ "", "bang" ],
                    "parameter_enable": 0,
                    "patching_rect": [ 1060.7857612371445, 343.6731775403023, 50.0, 22.0 ]
                }
            },
            {
                "box": {
                    "id": "obj-154",
                    "maxclass": "button",
                    "numinlets": 1,
                    "numoutlets": 1,
                    "outlettype": [ "bang" ],
                    "parameter_enable": 0,
                    "patching_rect": [ 1050.3000000000002, 248.00001108646393, 24.0, 24.0 ]
                }
            },
            {
                "box": {
                    "id": "obj-152",
                    "maxclass": "message",
                    "numinlets": 2,
                    "numoutlets": 1,
                    "outlettype": [ "" ],
                    "patching_rect": [ 1050.3000000000002, 277.87, 29.5, 22.0 ],
                    "text": "1."
                }
            },
            {
                "box": {
                    "id": "obj-150",
                    "maxclass": "newobj",
                    "numinlets": 1,
                    "numoutlets": 2,
                    "outlettype": [ "bang", "float" ],
                    "patching_rect": [ 1050.2857612371445, 309.1428709626198, 29.5, 22.0 ],
                    "text": "t b f"
                }
            },
            {
                "box": {
                    "format": 6,
                    "id": "obj-107",
                    "maxclass": "flonum",
                    "numinlets": 1,
                    "numoutlets": 2,
                    "outlettype": [ "", "bang" ],
                    "parameter_enable": 0,
                    "patching_rect": [ 681.1475214958191, 392.39343070983887, 50.0, 22.0 ]
                }
            },
            {
                "box": {
                    "id": "obj-108",
                    "maxclass": "newobj",
                    "numinlets": 2,
                    "numoutlets": 1,
                    "outlettype": [ "float" ],
                    "patching_rect": [ 681.1475214958191, 343.6731775403023, 81.0, 22.0 ],
                    "text": "snapshot~ 10"
                }
            },
            {
                "box": {
                    "format": 6,
                    "id": "obj-105",
                    "maxclass": "flonum",
                    "numinlets": 1,
                    "numoutlets": 2,
                    "outlettype": [ "", "bang" ],
                    "parameter_enable": 0,
                    "patching_rect": [ 557.3770332336426, 392.39343070983887, 50.0, 22.0 ]
                }
            },
            {
                "box": {
                    "id": "obj-106",
                    "maxclass": "newobj",
                    "numinlets": 2,
                    "numoutlets": 1,
                    "outlettype": [ "float" ],
                    "patching_rect": [ 557.3770332336426, 343.12799644470215, 81.0, 22.0 ],
                    "text": "snapshot~ 10"
                }
            },
            {
                "box": {
                    "format": 6,
                    "id": "obj-103",
                    "maxclass": "flonum",
                    "numinlets": 1,
                    "numoutlets": 2,
                    "outlettype": [ "", "bang" ],
                    "parameter_enable": 0,
                    "patching_rect": [ 449.1803150177002, 392.39343070983887, 50.0, 22.0 ]
                }
            },
            {
                "box": {
                    "id": "obj-104",
                    "maxclass": "newobj",
                    "numinlets": 2,
                    "numoutlets": 1,
                    "outlettype": [ "float" ],
                    "patching_rect": [ 449.1803150177002, 343.12799644470215, 81.0, 22.0 ],
                    "text": "snapshot~ 10"
                }
            },
            {
                "box": {
                    "format": 6,
                    "id": "obj-102",
                    "maxclass": "flonum",
                    "numinlets": 1,
                    "numoutlets": 2,
                    "outlettype": [ "", "bang" ],
                    "parameter_enable": 0,
                    "patching_rect": [ 340.1639246940613, 392.39343070983887, 50.0, 22.0 ]
                }
            },
            {
                "box": {
                    "fontface": 0,
                    "fontname": "Arial",
                    "fontsize": 12.0,
                    "id": "obj-99",
                    "maxclass": "number~",
                    "mode": 2,
                    "numinlets": 2,
                    "numoutlets": 2,
                    "outlettype": [ "signal", "float" ],
                    "patching_rect": [ 356.7901519536972, 286.4197759628296, 56.0, 22.0 ],
                    "sig": 0.0
                }
            },
            {
                "box": {
                    "fontface": 0,
                    "fontname": "Arial",
                    "fontsize": 12.0,
                    "id": "obj-100",
                    "maxclass": "number~",
                    "mode": 2,
                    "numinlets": 2,
                    "numoutlets": 2,
                    "outlettype": [ "signal", "float" ],
                    "patching_rect": [ 356.7901519536972, 260.49384796619415, 56.0, 22.0 ],
                    "sig": 0.0
                }
            },
            {
                "box": {
                    "fontface": 0,
                    "fontname": "Arial",
                    "fontsize": 12.0,
                    "id": "obj-98",
                    "maxclass": "number~",
                    "mode": 2,
                    "numinlets": 2,
                    "numoutlets": 2,
                    "outlettype": [ "signal", "float" ],
                    "patching_rect": [ 525.9259679317474, 286.4197759628296, 56.0, 22.0 ],
                    "sig": 0.0
                }
            },
            {
                "box": {
                    "fontface": 0,
                    "fontname": "Arial",
                    "fontsize": 12.0,
                    "id": "obj-97",
                    "maxclass": "number~",
                    "mode": 2,
                    "numinlets": 2,
                    "numoutlets": 2,
                    "outlettype": [ "signal", "float" ],
                    "patching_rect": [ 525.9259679317474, 260.49384796619415, 56.0, 22.0 ],
                    "sig": 0.0
                }
            },
            {
                "box": {
                    "id": "obj-96",
                    "maxclass": "newobj",
                    "numinlets": 2,
                    "numoutlets": 1,
                    "outlettype": [ "float" ],
                    "patching_rect": [ 340.1639246940613, 343.12799644470215, 81.0, 22.0 ],
                    "text": "snapshot~ 10"
                }
            },
            {
                "box": {
                    "comment": "",
                    "id": "obj-87",
                    "index": 1,
                    "maxclass": "inlet",
                    "numinlets": 0,
                    "numoutlets": 1,
                    "outlettype": [ "multichannelsignal" ],
                    "patching_rect": [ 428.3950959444046, 181.48149597644806, 30.0, 30.0 ]
                }
            },
            {
                "box": {
                    "id": "obj-86",
                    "maxclass": "newobj",
                    "numinlets": 1,
                    "numoutlets": 4,
                    "outlettype": [ "signal", "signal", "signal", "signal" ],
                    "patching_rect": [ 428.3950959444046, 229.62964797019958, 84.0, 22.0 ],
                    "text": "mc.unpack~ 4"
                }
            },
            {
                "box": {
                    "id": "obj-85",
                    "maxclass": "button",
                    "numinlets": 1,
                    "numoutlets": 1,
                    "outlettype": [ "bang" ],
                    "parameter_enable": 0,
                    "patching_rect": [ 920.0, 871.0, 24.0, 24.0 ]
                }
            },
            {
                "box": {
                    "id": "obj-83",
                    "maxclass": "button",
                    "numinlets": 1,
                    "numoutlets": 1,
                    "outlettype": [ "bang" ],
                    "parameter_enable": 0,
                    "patching_rect": [ 881.0, 871.0, 24.0, 24.0 ]
                }
            },
            {
                "box": {
                    "id": "obj-81",
                    "maxclass": "button",
                    "numinlets": 1,
                    "numoutlets": 1,
                    "outlettype": [ "bang" ],
                    "parameter_enable": 0,
                    "patching_rect": [ 842.0, 871.0, 24.0, 24.0 ]
                }
            },
            {
                "box": {
                    "id": "obj-79",
                    "maxclass": "button",
                    "numinlets": 1,
                    "numoutlets": 1,
                    "outlettype": [ "bang" ],
                    "parameter_enable": 0,
                    "patching_rect": [ 801.0, 871.0, 24.0, 24.0 ]
                }
            },
            {
                "box": {
                    "comment": "",
                    "id": "obj-77",
                    "index": 8,
                    "maxclass": "outlet",
                    "numinlets": 1,
                    "numoutlets": 0,
                    "patching_rect": [ 920.0, 907.0, 30.0, 30.0 ]
                }
            },
            {
                "box": {
                    "comment": "",
                    "id": "obj-76",
                    "index": 7,
                    "maxclass": "outlet",
                    "numinlets": 1,
                    "numoutlets": 0,
                    "patching_rect": [ 881.0, 907.0, 30.0, 30.0 ]
                }
            },
            {
                "box": {
                    "comment": "",
                    "id": "obj-75",
                    "index": 6,
                    "maxclass": "outlet",
                    "numinlets": 1,
                    "numoutlets": 0,
                    "patching_rect": [ 842.0, 907.0, 30.0, 30.0 ]
                }
            },
            {
                "box": {
                    "comment": "",
                    "id": "obj-74",
                    "index": 5,
                    "maxclass": "outlet",
                    "numinlets": 1,
                    "numoutlets": 0,
                    "patching_rect": [ 801.0, 907.0, 30.0, 30.0 ]
                }
            },
            {
                "box": {
                    "id": "obj-61",
                    "maxclass": "newobj",
                    "numinlets": 2,
                    "numoutlets": 2,
                    "outlettype": [ "bang", "" ],
                    "patching_rect": [ 690.9090299606323, 503.0302586555481, 34.0, 22.0 ],
                    "text": "sel 1"
                }
            },
            {
                "box": {
                    "id": "obj-62",
                    "maxclass": "newobj",
                    "numinlets": 2,
                    "numoutlets": 1,
                    "outlettype": [ "int" ],
                    "patching_rect": [ 690.9090299606323, 474.2423824071884, 36.0, 22.0 ],
                    "text": "< 1.1"
                }
            },
            {
                "box": {
                    "id": "obj-63",
                    "maxclass": "message",
                    "numinlets": 2,
                    "numoutlets": 1,
                    "outlettype": [ "" ],
                    "patching_rect": [ 690.9090299606323, 530.3029835224152, 29.5, 22.0 ],
                    "text": "0."
                }
            },
            {
                "box": {
                    "format": 6,
                    "id": "obj-64",
                    "maxclass": "flonum",
                    "numinlets": 1,
                    "numoutlets": 2,
                    "outlettype": [ "", "bang" ],
                    "parameter_enable": 0,
                    "patching_rect": [ 690.9090299606323, 652.2726697325706, 50.0, 22.0 ]
                }
            },
            {
                "box": {
                    "id": "obj-65",
                    "maxclass": "message",
                    "numinlets": 2,
                    "numoutlets": 1,
                    "outlettype": [ "" ],
                    "patching_rect": [ 725.3333549499512, 609.3333514928818, 29.5, 22.0 ],
                    "text": "1."
                }
            },
            {
                "box": {
                    "id": "obj-66",
                    "maxclass": "newobj",
                    "numinlets": 2,
                    "numoutlets": 2,
                    "outlettype": [ "bang", "" ],
                    "patching_rect": [ 725.3333549499512, 582.0000173449516, 34.0, 22.0 ],
                    "text": "sel 1"
                }
            },
            {
                "box": {
                    "id": "obj-67",
                    "maxclass": "newobj",
                    "numinlets": 2,
                    "numoutlets": 1,
                    "outlettype": [ "int" ],
                    "patching_rect": [ 725.3333549499512, 555.3333498835564, 42.0, 22.0 ],
                    "text": "> 1.92"
                }
            },
            {
                "box": {
                    "id": "obj-54",
                    "maxclass": "newobj",
                    "numinlets": 2,
                    "numoutlets": 2,
                    "outlettype": [ "bang", "" ],
                    "patching_rect": [ 568.9393437504768, 503.0302586555481, 34.0, 22.0 ],
                    "text": "sel 1"
                }
            },
            {
                "box": {
                    "id": "obj-55",
                    "maxclass": "newobj",
                    "numinlets": 2,
                    "numoutlets": 1,
                    "outlettype": [ "int" ],
                    "patching_rect": [ 568.9393437504768, 474.2423824071884, 36.0, 22.0 ],
                    "text": "< 1.1"
                }
            },
            {
                "box": {
                    "id": "obj-56",
                    "maxclass": "message",
                    "numinlets": 2,
                    "numoutlets": 1,
                    "outlettype": [ "" ],
                    "patching_rect": [ 568.9393437504768, 530.3029835224152, 29.5, 22.0 ],
                    "text": "0."
                }
            },
            {
                "box": {
                    "format": 6,
                    "id": "obj-57",
                    "maxclass": "flonum",
                    "numinlets": 1,
                    "numoutlets": 2,
                    "outlettype": [ "", "bang" ],
                    "parameter_enable": 0,
                    "patching_rect": [ 568.1817680597305, 652.2726697325706, 50.0, 22.0 ]
                }
            },
            {
                "box": {
                    "id": "obj-58",
                    "maxclass": "message",
                    "numinlets": 2,
                    "numoutlets": 1,
                    "outlettype": [ "" ],
                    "patching_rect": [ 602.666684627533, 609.3333514928818, 29.5, 22.0 ],
                    "text": "1."
                }
            },
            {
                "box": {
                    "id": "obj-59",
                    "maxclass": "newobj",
                    "numinlets": 2,
                    "numoutlets": 2,
                    "outlettype": [ "bang", "" ],
                    "patching_rect": [ 602.666684627533, 580.6666839718819, 34.0, 22.0 ],
                    "text": "sel 1"
                }
            },
            {
                "box": {
                    "id": "obj-60",
                    "maxclass": "newobj",
                    "numinlets": 2,
                    "numoutlets": 1,
                    "outlettype": [ "int" ],
                    "patching_rect": [ 602.666684627533, 555.3333498835564, 42.0, 22.0 ],
                    "text": "> 1.92"
                }
            },
            {
                "box": {
                    "id": "obj-47",
                    "maxclass": "newobj",
                    "numinlets": 2,
                    "numoutlets": 2,
                    "outlettype": [ "bang", "" ],
                    "patching_rect": [ 459.09086859226227, 503.0302586555481, 34.0, 22.0 ],
                    "text": "sel 1"
                }
            },
            {
                "box": {
                    "id": "obj-48",
                    "maxclass": "newobj",
                    "numinlets": 2,
                    "numoutlets": 1,
                    "outlettype": [ "int" ],
                    "patching_rect": [ 459.09086859226227, 474.2423824071884, 36.0, 22.0 ],
                    "text": "< 1.1"
                }
            },
            {
                "box": {
                    "id": "obj-49",
                    "maxclass": "message",
                    "numinlets": 2,
                    "numoutlets": 1,
                    "outlettype": [ "" ],
                    "patching_rect": [ 459.09086859226227, 532.5757105946541, 29.5, 22.0 ],
                    "text": "0."
                }
            },
            {
                "box": {
                    "format": 6,
                    "id": "obj-50",
                    "maxclass": "flonum",
                    "numinlets": 1,
                    "numoutlets": 2,
                    "outlettype": [ "", "bang" ],
                    "parameter_enable": 0,
                    "patching_rect": [ 459.09086859226227, 652.2726697325706, 50.0, 22.0 ]
                }
            },
            {
                "box": {
                    "id": "obj-51",
                    "maxclass": "message",
                    "numinlets": 2,
                    "numoutlets": 1,
                    "outlettype": [ "" ],
                    "patching_rect": [ 494.66668140888214, 608.6363162398338, 29.5, 22.0 ],
                    "text": "1."
                }
            },
            {
                "box": {
                    "id": "obj-52",
                    "maxclass": "newobj",
                    "numinlets": 2,
                    "numoutlets": 2,
                    "outlettype": [ "bang", "" ],
                    "patching_rect": [ 494.66668140888214, 581.3029820919037, 34.0, 22.0 ],
                    "text": "sel 1"
                }
            },
            {
                "box": {
                    "id": "obj-53",
                    "maxclass": "newobj",
                    "numinlets": 2,
                    "numoutlets": 1,
                    "outlettype": [ "int" ],
                    "patching_rect": [ 494.66668140888214, 555.3029813170433, 29.5, 22.0 ],
                    "text": "> 1."
                }
            },
            {
                "box": {
                    "id": "obj-42",
                    "maxclass": "newobj",
                    "numinlets": 2,
                    "numoutlets": 2,
                    "outlettype": [ "bang", "" ],
                    "patching_rect": [ 350.7575448155403, 503.0302586555481, 34.0, 22.0 ],
                    "text": "sel 1"
                }
            },
            {
                "box": {
                    "id": "obj-41",
                    "maxclass": "newobj",
                    "numinlets": 2,
                    "numoutlets": 1,
                    "outlettype": [ "int" ],
                    "patching_rect": [ 350.7575448155403, 474.2423824071884, 36.0, 22.0 ],
                    "text": "< 1.1"
                }
            },
            {
                "box": {
                    "id": "obj-40",
                    "maxclass": "message",
                    "numinlets": 2,
                    "numoutlets": 1,
                    "outlettype": [ "" ],
                    "patching_rect": [ 350.7575448155403, 530.3029835224152, 29.5, 22.0 ],
                    "text": "0."
                }
            },
            {
                "box": {
                    "format": 6,
                    "id": "obj-38",
                    "maxclass": "flonum",
                    "numinlets": 1,
                    "numoutlets": 2,
                    "outlettype": [ "", "bang" ],
                    "parameter_enable": 0,
                    "patching_rect": [ 350.7575448155403, 652.2726697325706, 50.0, 22.0 ]
                }
            },
            {
                "box": {
                    "id": "obj-36",
                    "maxclass": "message",
                    "numinlets": 2,
                    "numoutlets": 1,
                    "outlettype": [ "" ],
                    "patching_rect": [ 386.6666781902313, 610.0000181794167, 29.5, 22.0 ],
                    "text": "1."
                }
            },
            {
                "box": {
                    "id": "obj-34",
                    "maxclass": "newobj",
                    "numinlets": 2,
                    "numoutlets": 2,
                    "outlettype": [ "bang", "" ],
                    "patching_rect": [ 386.6666781902313, 582.0000173449516, 34.0, 22.0 ],
                    "text": "sel 1"
                }
            },
            {
                "box": {
                    "id": "obj-33",
                    "maxclass": "newobj",
                    "numinlets": 2,
                    "numoutlets": 1,
                    "outlettype": [ "int" ],
                    "patching_rect": [ 386.6666781902313, 555.3333498835564, 42.0, 22.0 ],
                    "text": "> 1.92"
                }
            },
            {
                "box": {
                    "id": "obj-32",
                    "maxclass": "newobj",
                    "numinlets": 1,
                    "numoutlets": 3,
                    "outlettype": [ "bang", "float", "float" ],
                    "patching_rect": [ 681.1475214958191, 416.39343070983887, 40.0, 22.0 ],
                    "text": "t b f f"
                }
            },
            {
                "box": {
                    "id": "obj-31",
                    "maxclass": "newobj",
                    "numinlets": 1,
                    "numoutlets": 3,
                    "outlettype": [ "bang", "float", "float" ],
                    "patching_rect": [ 557.3770332336426, 415.57375860214233, 40.0, 22.0 ],
                    "text": "t b f f"
                }
            },
            {
                "box": {
                    "id": "obj-30",
                    "maxclass": "newobj",
                    "numinlets": 1,
                    "numoutlets": 3,
                    "outlettype": [ "bang", "float", "float" ],
                    "patching_rect": [ 449.1803150177002, 416.39343070983887, 40.0, 22.0 ],
                    "text": "t b f f"
                }
            },
            {
                "box": {
                    "id": "obj-29",
                    "maxclass": "newobj",
                    "numinlets": 1,
                    "numoutlets": 3,
                    "outlettype": [ "bang", "float", "float" ],
                    "patching_rect": [ 340.1639246940613, 416.39343070983887, 40.0, 22.0 ],
                    "text": "t b f f"
                }
            },
            {
                "box": {
                    "comment": "",
                    "id": "obj-28",
                    "index": 4,
                    "maxclass": "outlet",
                    "numinlets": 1,
                    "numoutlets": 0,
                    "patching_rect": [ 690.9090299606323, 692.4241813421249, 30.0, 30.0 ]
                }
            },
            {
                "box": {
                    "comment": "",
                    "id": "obj-27",
                    "index": 3,
                    "maxclass": "outlet",
                    "numinlets": 1,
                    "numoutlets": 0,
                    "patching_rect": [ 568.1817680597305, 692.4241813421249, 30.0, 30.0 ]
                }
            },
            {
                "box": {
                    "comment": "",
                    "id": "obj-26",
                    "index": 2,
                    "maxclass": "outlet",
                    "numinlets": 1,
                    "numoutlets": 0,
                    "patching_rect": [ 459.09086859226227, 692.4241813421249, 30.0, 30.0 ]
                }
            },
            {
                "box": {
                    "comment": "",
                    "id": "obj-25",
                    "index": 1,
                    "maxclass": "outlet",
                    "numinlets": 1,
                    "numoutlets": 0,
                    "patching_rect": [ 350.7575448155403, 692.4241813421249, 30.0, 30.0 ]
                }
            },
            {
                "box": {
                    "id": "obj-24",
                    "maxclass": "comment",
                    "numinlets": 1,
                    "numoutlets": 0,
                    "patching_rect": [ 349.999969124794, 736.3635714054108, 370.0854738354683, 20.0 ],
                    "text": "outputs either 1 or 0 for true or false."
                }
            },
            {
                "box": {
                    "id": "obj-13",
                    "linecount": 2,
                    "maxclass": "comment",
                    "numinlets": 1,
                    "numoutlets": 0,
                    "patching_rect": [ 776.3157820701599, 410.89343070983887, 226.0, 33.0 ],
                    "text": "left foot toe, left foor heel, right foot toe, right foot heel"
                }
            },
            {
                "box": {
                    "id": "obj-11",
                    "maxclass": "comment",
                    "numinlets": 1,
                    "numoutlets": 0,
                    "patching_rect": [ 776.3157820701599, 382.4561367034912, 226.0, 20.0 ],
                    "text": "pressure values"
                }
            }
        ],
        "lines": [
            {
                "patchline": {
                    "destination": [ "obj-45", 0 ],
                    "midpoints": [ 789.5, 771.0, 789.5, 771.0 ],
                    "source": [ "obj-1", 0 ]
                }
            },
            {
                "patchline": {
                    "destination": [ "obj-4", 0 ],
                    "midpoints": [ 913.6666451096535, 675.0, 900.0, 675.0, 900.0, 717.0, 954.0, 717.0, 954.0, 786.0, 908.6666452288628, 786.0 ],
                    "source": [ "obj-10", 0 ]
                }
            },
            {
                "patchline": {
                    "destination": [ "obj-29", 0 ],
                    "source": [ "obj-102", 0 ]
                }
            },
            {
                "patchline": {
                    "destination": [ "obj-30", 0 ],
                    "source": [ "obj-103", 0 ]
                }
            },
            {
                "patchline": {
                    "destination": [ "obj-103", 0 ],
                    "source": [ "obj-104", 0 ]
                }
            },
            {
                "patchline": {
                    "destination": [ "obj-31", 0 ],
                    "source": [ "obj-105", 0 ]
                }
            },
            {
                "patchline": {
                    "destination": [ "obj-105", 0 ],
                    "source": [ "obj-106", 0 ]
                }
            },
            {
                "patchline": {
                    "destination": [ "obj-32", 0 ],
                    "source": [ "obj-107", 0 ]
                }
            },
            {
                "patchline": {
                    "destination": [ "obj-107", 0 ],
                    "source": [ "obj-108", 0 ]
                }
            },
            {
                "patchline": {
                    "destination": [ "obj-4", 0 ],
                    "midpoints": [ 913.6666451096535, 717.0, 954.0, 717.0, 954.0, 771.0, 908.6666452288628, 771.0 ],
                    "source": [ "obj-12", 0 ]
                }
            },
            {
                "patchline": {
                    "destination": [ "obj-156", 0 ],
                    "source": [ "obj-150", 1 ]
                }
            },
            {
                "patchline": {
                    "destination": [ "obj-160", 0 ],
                    "source": [ "obj-150", 0 ]
                }
            },
            {
                "patchline": {
                    "destination": [ "obj-150", 0 ],
                    "source": [ "obj-152", 0 ]
                }
            },
            {
                "patchline": {
                    "destination": [ "obj-152", 0 ],
                    "source": [ "obj-154", 0 ]
                }
            },
            {
                "patchline": {
                    "destination": [ "obj-158", 0 ],
                    "source": [ "obj-156", 0 ]
                }
            },
            {
                "patchline": {
                    "destination": [ "obj-156", 0 ],
                    "source": [ "obj-160", 0 ]
                }
            },
            {
                "patchline": {
                    "destination": [ "obj-173", 0 ],
                    "order": 1,
                    "source": [ "obj-163", 0 ]
                }
            },
            {
                "patchline": {
                    "destination": [ "obj-179", 0 ],
                    "order": 0,
                    "source": [ "obj-163", 0 ]
                }
            },
            {
                "patchline": {
                    "destination": [ "obj-163", 0 ],
                    "source": [ "obj-166", 1 ]
                }
            },
            {
                "patchline": {
                    "destination": [ "obj-166", 0 ],
                    "source": [ "obj-168", 0 ]
                }
            },
            {
                "patchline": {
                    "destination": [ "obj-168", 0 ],
                    "source": [ "obj-170", 0 ]
                }
            },
            {
                "patchline": {
                    "destination": [ "obj-174", 0 ],
                    "source": [ "obj-172", 0 ]
                }
            },
            {
                "patchline": {
                    "destination": [ "obj-172", 0 ],
                    "order": 0,
                    "source": [ "obj-173", 0 ]
                }
            },
            {
                "patchline": {
                    "destination": [ "obj-182", 0 ],
                    "order": 1,
                    "source": [ "obj-173", 0 ]
                }
            },
            {
                "patchline": {
                    "destination": [ "obj-175", 0 ],
                    "source": [ "obj-174", 0 ]
                }
            },
            {
                "patchline": {
                    "destination": [ "obj-173", 1 ],
                    "order": 1,
                    "source": [ "obj-177", 0 ]
                }
            },
            {
                "patchline": {
                    "destination": [ "obj-179", 1 ],
                    "order": 0,
                    "source": [ "obj-177", 0 ]
                }
            },
            {
                "patchline": {
                    "destination": [ "obj-180", 0 ],
                    "source": [ "obj-178", 0 ]
                }
            },
            {
                "patchline": {
                    "destination": [ "obj-178", 0 ],
                    "order": 1,
                    "source": [ "obj-179", 0 ]
                }
            },
            {
                "patchline": {
                    "destination": [ "obj-184", 0 ],
                    "order": 0,
                    "source": [ "obj-179", 0 ]
                }
            },
            {
                "patchline": {
                    "destination": [ "obj-175", 0 ],
                    "source": [ "obj-180", 0 ]
                }
            },
            {
                "patchline": {
                    "destination": [ "obj-33", 0 ],
                    "midpoints": [ 370.6639246940613, 459.0, 396.0, 459.0, 396.0, 540.0, 396.1666781902313, 540.0 ],
                    "source": [ "obj-29", 2 ]
                }
            },
            {
                "patchline": {
                    "destination": [ "obj-38", 0 ],
                    "midpoints": [ 349.6639246940613, 459.0, 336.0, 459.0, 336.0, 639.0, 360.2575448155403, 639.0 ],
                    "source": [ "obj-29", 0 ]
                }
            },
            {
                "patchline": {
                    "destination": [ "obj-41", 0 ],
                    "midpoints": [ 360.1639246940613, 441.0, 360.2575448155403, 441.0 ],
                    "source": [ "obj-29", 1 ]
                }
            },
            {
                "patchline": {
                    "destination": [ "obj-48", 0 ],
                    "source": [ "obj-30", 1 ]
                }
            },
            {
                "patchline": {
                    "destination": [ "obj-50", 0 ],
                    "midpoints": [ 458.6803150177002, 459.0, 444.0, 459.0, 444.0, 639.0, 468.59086859226227, 639.0 ],
                    "source": [ "obj-30", 0 ]
                }
            },
            {
                "patchline": {
                    "destination": [ "obj-53", 0 ],
                    "midpoints": [ 479.6803150177002, 459.0, 504.0, 459.0, 504.0, 543.0, 504.16668140888214, 543.0 ],
                    "source": [ "obj-30", 2 ]
                }
            },
            {
                "patchline": {
                    "destination": [ "obj-55", 0 ],
                    "source": [ "obj-31", 1 ]
                }
            },
            {
                "patchline": {
                    "destination": [ "obj-57", 0 ],
                    "midpoints": [ 566.8770332336426, 459.0, 555.0, 459.0, 555.0, 639.0, 577.6817680597305, 639.0 ],
                    "source": [ "obj-31", 0 ]
                }
            },
            {
                "patchline": {
                    "destination": [ "obj-60", 0 ],
                    "midpoints": [ 587.8770332336426, 459.0, 612.0, 459.0, 612.0, 552.0, 612.166684627533, 552.0 ],
                    "source": [ "obj-31", 2 ]
                }
            },
            {
                "patchline": {
                    "destination": [ "obj-62", 0 ],
                    "source": [ "obj-32", 1 ]
                }
            },
            {
                "patchline": {
                    "destination": [ "obj-64", 0 ],
                    "midpoints": [ 690.6475214958191, 459.0, 675.0, 459.0, 675.0, 639.0, 700.4090299606323, 639.0 ],
                    "source": [ "obj-32", 0 ]
                }
            },
            {
                "patchline": {
                    "destination": [ "obj-67", 0 ],
                    "midpoints": [ 711.6475214958191, 459.0, 735.0, 459.0, 735.0, 552.0, 734.8333549499512, 552.0 ],
                    "source": [ "obj-32", 2 ]
                }
            },
            {
                "patchline": {
                    "destination": [ "obj-34", 0 ],
                    "source": [ "obj-33", 0 ]
                }
            },
            {
                "patchline": {
                    "destination": [ "obj-36", 0 ],
                    "source": [ "obj-34", 0 ]
                }
            },
            {
                "patchline": {
                    "destination": [ "obj-1", 0 ],
                    "midpoints": [ 396.1666781902313, 642.0, 444.0, 642.0, 444.0, 723.0, 765.0, 723.0, 765.0, 744.0, 789.5, 744.0 ],
                    "order": 0,
                    "source": [ "obj-36", 0 ]
                }
            },
            {
                "patchline": {
                    "destination": [ "obj-38", 0 ],
                    "midpoints": [ 396.1666781902313, 640.470703125, 360.2575448155403, 640.470703125 ],
                    "order": 1,
                    "source": [ "obj-36", 0 ]
                }
            },
            {
                "patchline": {
                    "destination": [ "obj-83", 0 ],
                    "source": [ "obj-37", 1 ]
                }
            },
            {
                "patchline": {
                    "destination": [ "obj-25", 0 ],
                    "source": [ "obj-38", 0 ]
                }
            },
            {
                "patchline": {
                    "destination": [ "obj-85", 0 ],
                    "source": [ "obj-4", 1 ]
                }
            },
            {
                "patchline": {
                    "destination": [ "obj-38", 0 ],
                    "order": 1,
                    "source": [ "obj-40", 0 ]
                }
            },
            {
                "patchline": {
                    "destination": [ "obj-5", 0 ],
                    "midpoints": [ 360.2575448155403, 606.80859375, 578.822265625, 606.80859375, 578.822265625, 639.0, 789.5, 639.0 ],
                    "order": 0,
                    "source": [ "obj-40", 0 ]
                }
            },
            {
                "patchline": {
                    "destination": [ "obj-42", 0 ],
                    "source": [ "obj-41", 0 ]
                }
            },
            {
                "patchline": {
                    "destination": [ "obj-40", 0 ],
                    "source": [ "obj-42", 0 ]
                }
            },
            {
                "patchline": {
                    "destination": [ "obj-81", 0 ],
                    "source": [ "obj-43", 1 ]
                }
            },
            {
                "patchline": {
                    "destination": [ "obj-79", 0 ],
                    "source": [ "obj-45", 1 ]
                }
            },
            {
                "patchline": {
                    "destination": [ "obj-49", 0 ],
                    "source": [ "obj-47", 0 ]
                }
            },
            {
                "patchline": {
                    "destination": [ "obj-47", 0 ],
                    "source": [ "obj-48", 0 ]
                }
            },
            {
                "patchline": {
                    "destination": [ "obj-50", 0 ],
                    "order": 1,
                    "source": [ "obj-49", 0 ]
                }
            },
            {
                "patchline": {
                    "destination": [ "obj-7", 0 ],
                    "midpoints": [ 468.59086859226227, 606.759765625, 578.52734375, 606.759765625, 578.52734375, 639.0, 804.0, 639.0, 804.0, 675.0, 829.4999804496765, 675.0 ],
                    "order": 0,
                    "source": [ "obj-49", 0 ]
                }
            },
            {
                "patchline": {
                    "destination": [ "obj-45", 0 ],
                    "midpoints": [ 789.5, 744.0, 777.0, 744.0, 777.0, 810.0, 789.5, 810.0 ],
                    "source": [ "obj-5", 0 ]
                }
            },
            {
                "patchline": {
                    "destination": [ "obj-26", 0 ],
                    "source": [ "obj-50", 0 ]
                }
            },
            {
                "patchline": {
                    "destination": [ "obj-50", 0 ],
                    "midpoints": [ 504.16668140888214, 638.869140625, 468.59086859226227, 638.869140625 ],
                    "order": 1,
                    "source": [ "obj-51", 0 ]
                }
            },
            {
                "patchline": {
                    "destination": [ "obj-6", 0 ],
                    "midpoints": [ 504.16668140888214, 639.0205078125, 804.0, 639.0205078125, 804.0, 648.0, 829.4999804496765, 648.0 ],
                    "order": 0,
                    "source": [ "obj-51", 0 ]
                }
            },
            {
                "patchline": {
                    "destination": [ "obj-51", 0 ],
                    "source": [ "obj-52", 0 ]
                }
            },
            {
                "patchline": {
                    "destination": [ "obj-52", 0 ],
                    "source": [ "obj-53", 0 ]
                }
            },
            {
                "patchline": {
                    "destination": [ "obj-56", 0 ],
                    "source": [ "obj-54", 0 ]
                }
            },
            {
                "patchline": {
                    "destination": [ "obj-54", 0 ],
                    "source": [ "obj-55", 0 ]
                }
            },
            {
                "patchline": {
                    "destination": [ "obj-57", 0 ],
                    "order": 1,
                    "source": [ "obj-56", 0 ]
                }
            },
            {
                "patchline": {
                    "destination": [ "obj-8", 0 ],
                    "midpoints": [ 578.4393437504768, 639.0, 804.0, 639.0, 804.0, 717.0, 873.5, 717.0 ],
                    "order": 0,
                    "source": [ "obj-56", 0 ]
                }
            },
            {
                "patchline": {
                    "destination": [ "obj-27", 0 ],
                    "source": [ "obj-57", 0 ]
                }
            },
            {
                "patchline": {
                    "destination": [ "obj-57", 0 ],
                    "midpoints": [ 612.166684627533, 638.982421875, 577.6817680597305, 638.982421875 ],
                    "order": 1,
                    "source": [ "obj-58", 0 ]
                }
            },
            {
                "patchline": {
                    "destination": [ "obj-9", 0 ],
                    "midpoints": [ 612.166684627533, 639.248046875, 675.0, 639.248046875, 675.0, 723.0, 765.0, 723.0, 765.0, 744.0, 873.5, 744.0 ],
                    "order": 0,
                    "source": [ "obj-58", 0 ]
                }
            },
            {
                "patchline": {
                    "destination": [ "obj-58", 0 ],
                    "source": [ "obj-59", 0 ]
                }
            },
            {
                "patchline": {
                    "destination": [ "obj-43", 0 ],
                    "midpoints": [ 829.4999804496765, 675.0, 765.0, 675.0, 765.0, 789.0, 829.4999804496765, 789.0 ],
                    "source": [ "obj-6", 0 ]
                }
            },
            {
                "patchline": {
                    "destination": [ "obj-59", 0 ],
                    "source": [ "obj-60", 0 ]
                }
            },
            {
                "patchline": {
                    "destination": [ "obj-63", 0 ],
                    "source": [ "obj-61", 0 ]
                }
            },
            {
                "patchline": {
                    "destination": [ "obj-61", 0 ],
                    "source": [ "obj-62", 0 ]
                }
            },
            {
                "patchline": {
                    "destination": [ "obj-12", 0 ],
                    "midpoints": [ 700.4090299606323, 639.0, 900.0, 639.0, 900.0, 675.0, 913.6666451096535, 675.0 ],
                    "order": 0,
                    "source": [ "obj-63", 0 ]
                }
            },
            {
                "patchline": {
                    "destination": [ "obj-64", 0 ],
                    "order": 1,
                    "source": [ "obj-63", 0 ]
                }
            },
            {
                "patchline": {
                    "destination": [ "obj-28", 0 ],
                    "source": [ "obj-64", 0 ]
                }
            },
            {
                "patchline": {
                    "destination": [ "obj-10", 0 ],
                    "midpoints": [ 734.8333549499512, 639.037109375, 804.0, 639.037109375, 804.0, 648.0, 913.6666451096535, 648.0 ],
                    "order": 0,
                    "source": [ "obj-65", 0 ]
                }
            },
            {
                "patchline": {
                    "destination": [ "obj-64", 0 ],
                    "midpoints": [ 734.8333549499512, 638.6062499494292, 700.47119140625, 638.6062499494292, 700.47119140625, 648.0, 700.4090299606323, 648.0 ],
                    "order": 1,
                    "source": [ "obj-65", 0 ]
                }
            },
            {
                "patchline": {
                    "destination": [ "obj-65", 0 ],
                    "source": [ "obj-66", 0 ]
                }
            },
            {
                "patchline": {
                    "destination": [ "obj-66", 0 ],
                    "source": [ "obj-67", 0 ]
                }
            },
            {
                "patchline": {
                    "destination": [ "obj-43", 0 ],
                    "midpoints": [ 829.4999804496765, 702.0, 765.0, 702.0, 765.0, 789.0, 829.4999804496765, 789.0 ],
                    "source": [ "obj-7", 0 ]
                }
            },
            {
                "patchline": {
                    "destination": [ "obj-74", 0 ],
                    "source": [ "obj-79", 0 ]
                }
            },
            {
                "patchline": {
                    "destination": [ "obj-37", 0 ],
                    "midpoints": [ 873.5, 744.0, 861.0, 744.0, 861.0, 789.0, 882.0, 789.0, 882.0, 819.0, 869.5, 819.0 ],
                    "source": [ "obj-8", 0 ]
                }
            },
            {
                "patchline": {
                    "destination": [ "obj-75", 0 ],
                    "source": [ "obj-81", 0 ]
                }
            },
            {
                "patchline": {
                    "destination": [ "obj-76", 0 ],
                    "source": [ "obj-83", 0 ]
                }
            },
            {
                "patchline": {
                    "destination": [ "obj-77", 0 ],
                    "source": [ "obj-85", 0 ]
                }
            },
            {
                "patchline": {
                    "destination": [ "obj-100", 0 ],
                    "order": 0,
                    "source": [ "obj-86", 0 ]
                }
            },
            {
                "patchline": {
                    "destination": [ "obj-104", 0 ],
                    "midpoints": [ 459.5617626110713, 330.0, 458.6803150177002, 330.0 ],
                    "order": 0,
                    "source": [ "obj-86", 1 ]
                }
            },
            {
                "patchline": {
                    "destination": [ "obj-106", 0 ],
                    "midpoints": [ 481.2284292777379, 330.0, 566.8770332336426, 330.0 ],
                    "order": 0,
                    "source": [ "obj-86", 2 ]
                }
            },
            {
                "patchline": {
                    "destination": [ "obj-108", 0 ],
                    "midpoints": [ 502.8950959444046, 330.0, 690.6475214958191, 330.0 ],
                    "order": 0,
                    "source": [ "obj-86", 3 ]
                }
            },
            {
                "patchline": {
                    "destination": [ "obj-96", 0 ],
                    "midpoints": [ 437.8950959444046, 330.0, 349.6639246940613, 330.0 ],
                    "order": 1,
                    "source": [ "obj-86", 0 ]
                }
            },
            {
                "patchline": {
                    "destination": [ "obj-97", 0 ],
                    "order": 1,
                    "source": [ "obj-86", 3 ]
                }
            },
            {
                "patchline": {
                    "destination": [ "obj-98", 0 ],
                    "order": 1,
                    "source": [ "obj-86", 2 ]
                }
            },
            {
                "patchline": {
                    "destination": [ "obj-99", 0 ],
                    "order": 1,
                    "source": [ "obj-86", 1 ]
                }
            },
            {
                "patchline": {
                    "destination": [ "obj-86", 0 ],
                    "source": [ "obj-87", 0 ]
                }
            },
            {
                "patchline": {
                    "destination": [ "obj-37", 0 ],
                    "midpoints": [ 873.5, 771.0, 882.0, 771.0, 882.0, 819.0, 869.5, 819.0 ],
                    "source": [ "obj-9", 0 ]
                }
            },
            {
                "patchline": {
                    "destination": [ "obj-102", 0 ],
                    "source": [ "obj-96", 0 ]
                }
            }
        ]
    }
}